<svg xmlns="http://www.w3.org/2000/svg" width="41" height="41" fill="none" viewBox="0 0 41 41"><g clip-path="url(#a)"><path fill="#fff" fill-rule="evenodd" d="M20.74 31.419c-2.16 0-3.163-.317-4.908-1.582-1.103 1.424-4.598 2.536-4.75.633 0-1.429-.316-2.636-.673-3.954-.426-1.623-.909-3.431-.909-6.051C9.5 14.207 14.618 9.5 20.683 9.5c6.07 0 10.825 4.94 10.825 11.023.02 5.989-4.797 10.864-10.767 10.896m.09-16.51c-2.953-.153-5.255 1.897-5.765 5.113-.42 2.662.326 5.904.962 6.073.304.073 1.072-.549 1.55-1.028.79.547 1.711.877 2.67.954 3.06.147 5.674-2.19 5.88-5.256.12-3.073-2.237-5.675-5.297-5.851z" clip-rule="evenodd"/></g><circle cx="20.5" cy="20.5" r="20" stroke="#fff"/><defs><clipPath id="a"><path fill="#fff" d="M9.5 9.5h22v22h-22z"/></clipPath></defs></svg>