<svg xmlns="http://www.w3.org/2000/svg" width="41" height="41" fill="none" viewBox="0 0 41 41"><g fill="#fff" clip-path="url(#a)"><path fill-rule="evenodd" d="M20.5 12.5a8 8 0 0 0-6.895 12.06l.569.718-.697 2.359 2.32-.648.378.243A8 8 0 1 0 20.5 12.5m-10 8c0-5.523 4.477-10 10-10s10 4.477 10 10-4.477 10-10 10c-1.826 0-3.54-.49-5.016-1.347l-4.948 1.382 1.426-4.829-.006-.007-.033-.055A9.96 9.96 0 0 1 10.5 20.5" clip-rule="evenodd"/><path d="M25.235 21.992c-.038-.018-1.497-.736-1.756-.83a1 1 0 0 0-.34-.075q-.296 0-.49.291c-.146.217-.587.732-.723.886-.018.02-.042.045-.057.045-.013 0-.238-.093-.307-.123-1.564-.68-2.751-2.313-2.914-2.589-.023-.04-.024-.057-.024-.057.005-.021.058-.074.085-.101.08-.079.166-.183.249-.283l.118-.14c.12-.14.174-.25.236-.375l.033-.066a.68.68 0 0 0-.02-.64c-.034-.069-.65-1.555-.715-1.711-.158-.377-.366-.552-.655-.552-.027 0 0 0-.112.005-.137.005-.883.104-1.213.312-.35.22-.94.923-.94 2.159 0 1.112.705 2.162 1.008 2.561l.041.06c1.161 1.695 2.608 2.951 4.075 3.537 1.412.564 2.08.63 2.46.63.16 0 .288-.013.4-.024l.072-.007c.488-.043 1.56-.599 1.804-1.276.192-.534.243-1.117.115-1.329-.088-.144-.239-.216-.43-.308"/></g><circle cx="20.5" cy="20.5" r="20" stroke="#fff"/><defs><clipPath id="a"><path fill="#fff" d="M8.5 8.5h24v24h-24z"/></clipPath></defs></svg>