<svg width="487" height="269" viewBox="0 0 487 269" fill="none" xmlns="http://www.w3.org/2000/svg">
<mask id="mask0_326_213" style="mask-type:alpha" maskUnits="userSpaceOnUse" x="0" y="0" width="487" height="269">
<rect width="487" height="269" rx="24" fill="url(#paint0_linear_326_213)"/>
</mask>
<g mask="url(#mask0_326_213)">
<path d="M484.385 33.7335L570.557 46.6417C572.939 42.8293 573.407 38.8607 577.586 36.2232C590.288 28.1791 603.277 42.2623 598.449 55.3759L665.803 89.2528L666.821 89.0228C673.061 73.5263 695.599 78.8917 694.975 95.0291C694.893 97.2311 692.841 99.7782 693.76 101.504C694.466 102.835 707.751 110.912 710.215 112.481C732.638 126.72 755.875 139.735 778.331 153.917L779.276 153.95C780.023 150.819 784.539 148.601 787.511 148.1C803.292 145.446 810.78 167.129 796.978 174.68L797.003 176.989L826.208 261.924C847.302 261.62 847.573 290.041 825.157 288.389L780.417 369.996C780.195 371.409 785.04 374.852 786.074 376.61C793.965 390.077 774.563 403.043 764.513 392.115C732.039 418.811 698.038 443.543 663.742 467.814L663.134 468.603C668.282 486.187 645.202 495.923 635.866 480.279L591.511 500.483L590.748 501.995C593.137 517.598 578.916 521.214 568.472 512.397L505.717 542.388C511.103 560.99 482.538 567.711 481.249 548.378C481.052 545.403 483.121 542.758 480.017 541.287L393.278 502.513C391.497 502.233 390.06 505.931 388.886 506.966C382.448 512.611 370.025 508.092 368.794 499.662C368.506 497.706 369.401 494.05 367.973 492.875L300.275 460.888C289.42 478.052 268.376 467.017 273.598 448.136L270.388 445.966L206.877 422.631C201.54 432.68 185.209 428.12 187.015 416.107C187.237 414.645 189.093 412.418 188.403 411.227L128.448 374.146L126.682 373.94C120.344 381.195 107.584 381.614 102.411 372.856C98.4292 366.102 98.8972 359.545 104.054 353.637C104.875 352.7 107.018 351.805 107.157 351.238C107.674 349.167 105.778 343.662 105.072 341.288C98.15 318.141 87.788 295.957 81.8844 272.441C80.0206 268.834 71.2186 269.836 68.7308 262.778C65.2576 252.902 74.7821 244.957 84.2738 248.309L133.432 147.911C134.162 144.92 129.786 142.751 128.284 139.3C119.679 119.523 147.702 108.529 156.562 127.805L225.023 98.0774L225.672 97.2475C217.568 77.043 241.371 64.1841 253.917 81.3978L337.552 45.6065C339.161 41.5475 337.437 37.8172 339.941 33.5446C347.84 20.0612 364.968 29.0747 364.606 43.0265L430.071 64.0444L432.551 63.0584L460.024 40.3232L460.755 38.7046C454.588 19.2395 484.311 13.3482 484.385 33.7253V33.7335ZM573.932 58.7858L571.625 49.5258L570.475 48.3919L484.64 35.533L479.927 42.5335L519.018 87.7163C521.252 86.8865 524.076 84.9227 526.498 84.8816C529.774 84.8241 532.747 88.1189 535.99 86.64L573.932 58.7776V58.7858ZM463.661 40.7833C462.955 40.3643 462.15 40.6354 461.502 41.0298L434.135 64.6114C437.51 66.4683 458.086 73.5921 460.007 72.2692L468.021 44.4479C465.968 44.3165 463.949 40.9477 463.669 40.7833H463.661ZM378.729 94.5361C383.54 94.2649 386.94 95.3249 390.766 98.1185L428.79 66.1314L363.375 44.8095C362.299 47.1019 357.865 50.0188 358.186 52.2619L378.729 94.5443V94.5361ZM517.007 90.8551L516.276 88.1682L479.409 45.1874C476.56 43.3387 473.178 45.664 469.942 45.3025C469.417 49.6654 460.968 71.8091 462.586 74.159L517.007 90.8551ZM345.779 51.432L338.291 47.0197L257.152 82.318C253.777 83.7724 256.717 88.6777 256.503 91.6685L323.774 105.25L345.771 51.432H345.779ZM376.98 96.0644L356.584 53.1493L355.336 52.229L348.694 52.9438L326.139 105.308L370.567 106.113C371.7 102.35 372.834 97.5762 376.98 96.0644ZM665.934 90.9701L598.392 57.7423L595.855 57.3644L591.487 60.955L614.107 114.33L665.088 99.4003L666.689 98.0117L665.934 90.9701ZM580.854 61.2508C578.793 60.8153 577.126 58.8844 575.032 60.2401C570.763 64.2252 536.77 86.7468 536.072 89.0721C535.645 90.4853 538.897 94.7251 536.942 99.77C536.376 101.224 533.954 102.761 534.832 104.527L556.525 124.781L567.051 120.763L580.854 61.2508ZM568.874 123.417L574.195 125.677L611.25 114.724L588.752 62.0314C586.552 62.7133 582.931 61.9903 581.79 63.9951L568.882 123.417H568.874ZM447.699 113.566L459.039 75.9913C458.899 75.0464 455.845 73.9536 454.851 73.5428C451.123 72.0063 436.172 66.9695 432.789 66.6573C431.253 66.5094 430.268 67.0681 429.176 68.0377L392.449 99.7043L395.093 107.609L447.699 113.566ZM515.381 93.2461L461.691 76.1474L450.146 113.204C450.557 114.601 459.892 115.546 461.986 115.85C470.64 117.107 479.467 117.625 488.138 118.709L514.724 101.882L515.381 93.2461ZM323.101 106.836L256.52 93.3775L248.834 104.166L288.566 163.917C291.292 161.435 300.045 163.284 301.441 161.608L323.101 106.836ZM208.922 150.08L231.534 104.585L226.797 99.351L157.424 130.138L157.76 137.353L208.922 150.08ZM630.43 156.916C633.657 156.39 637.754 159.34 639.774 156.226L671.074 106.105L667.56 101.085L615.167 116.031C613.508 118.339 628.772 151.822 630.422 156.908L630.43 156.916ZM536.286 108.849C535.292 107.929 534.865 105.965 533.248 105.423C529.454 107.042 525.004 107.913 521.03 106.228C519.568 105.612 517.269 103.04 515.997 103.155C514.626 103.278 495.24 116.178 492.883 118.019C492.268 118.504 491.479 118.003 491.923 119.753L555.794 127.353C549.694 120.788 542.83 114.938 536.286 108.841V108.849ZM692.274 103.237L684.334 110.189L697.981 164.27C711.225 164.065 724.633 164.254 737.951 163.908C739.749 163.859 741.416 163.128 743.214 163.087C748.222 162.955 774.768 164.114 776.722 161.616C777.149 159.537 778.725 156.842 777.083 155.141L692.291 103.237H692.274ZM247.66 105.464L232.971 106.056L210.868 150.976L284.198 170.597L287.023 165.461L247.66 105.464ZM303.485 163.728C303.666 164.032 306.334 165.264 306.86 166.078L373.187 114.971C370.732 105.785 367.521 108.849 359.984 108.348C350.377 107.707 341.46 107.732 331.812 107.633C329.39 107.609 327.083 105.982 324.792 107.781L304.052 158.905C303.633 160.203 302.779 162.536 303.485 163.736V163.728ZM644.118 166.037C657.83 165.404 672.65 166.291 686.231 165.429C687.725 165.33 694.91 164.516 695.361 163.884L682.043 109.449C678.866 108.858 675.869 109.334 673.25 107.001L640.308 158.305L644.11 166.028L644.118 166.037ZM438.512 145.446L446.739 115.916L394.633 109.137L393.196 115.061L428.388 147.204C429.439 148.42 438.175 145.857 438.503 145.446H438.512ZM426.434 158.477C425.522 154.993 428.856 150.877 427.328 148.256L391.283 116.055L382.736 119.703L383.877 164.311L426.434 158.477ZM485.067 120.533L449.292 116.31L440.548 146.374L443.816 148.56L445.474 148.313L485.058 120.541L485.067 120.533ZM310.177 175.288L380.905 165.042L380.199 119.317C378.384 118.463 375.97 116.211 374.065 117.074L308.798 168.181L310.177 175.297V175.288ZM574.039 127.378C575.673 131.116 573.341 135.989 576.806 138.675L621.743 163.021C624.026 163.342 625.816 158.79 628.46 157.82L612.835 117.846L608.836 117.674L574.031 127.378H574.039ZM487.891 121.437L445.852 150.17L447.149 158.066L448.315 159.184C467.545 164.623 486.331 171.936 505.602 177.178C509.297 178.181 514.059 180.67 517.393 178.329L556.435 141.321C554.973 137.542 553.011 134.427 553.405 130.13L552.247 129.013L494.575 121.289C492.432 121.355 489.969 120.961 487.899 121.437H487.891ZM157.013 138.897C155.864 139.168 153.285 144.09 154.985 145.273L192.319 181.048L206.155 155.298L206.426 152.43L157.005 138.905L157.013 138.897ZM590.124 178.205C591.002 178.764 593.482 178.246 594.623 177.992C598.967 177.014 615.667 170.876 619.666 168.822C622.819 167.203 622.803 166.069 619.921 163.999C608.007 155.437 590.058 149.365 577.635 140.886C575.049 139.513 572.922 140.352 571.346 142.595L571.296 144.09L590.124 178.197V178.205ZM559.588 143.342L556.878 144.041L517.787 180.235L543.355 188.197C546.886 186.939 548.955 183.982 553.339 183.472L559.588 143.342ZM588.432 179.791L587.899 177.03C584.352 172.865 571.477 144.961 568.185 144.23L561.911 144.912L555.368 183.661L562.215 188.953L588.424 179.791H588.432ZM172.474 220.118L190.677 183.431L151.725 144.92L146.988 147.878L159.616 215.204L161.11 217.513L172.466 220.118H172.474ZM158.015 218.581L145.239 150.491C143.744 147.295 138.416 147.985 135.345 147.196L85.9488 249.295L91.2201 254.061L143.145 240.585L144.303 239.46C143.276 230.06 147.998 219.995 158.023 218.573L158.015 218.581ZM284.272 182.831C283.032 179.619 284.888 174.467 281.833 172.84L210.186 153.202L208.363 154.459L193.994 183.16L222.338 211.589L284.28 182.823L284.272 182.831ZM427.887 160.244L383.861 167.228C381.997 170.4 383.893 173.99 383.967 177.162C384.263 188.969 382.596 204.022 383.918 215.237C384.09 216.675 384.345 217.982 385.412 219.05L394.444 219.28L431.27 166.677L431.5 164.656L427.879 160.236L427.887 160.244ZM512.442 180.621L447.092 160.4L441.87 165.125L463.505 217.809L474.384 217.53C484.303 207.629 495.125 198.697 505.224 189.01C506.324 187.958 513.238 181.533 512.425 180.629L512.442 180.621ZM697.989 166.168L704.426 195.09C710.083 195.937 713.113 197.481 717.358 201.146L776.607 169.126L777.888 166.554C777.757 164.771 775.852 164.344 774.431 164.27C757.673 163.432 738.189 165.733 721.217 166.193C713.491 166.398 705.715 165.971 697.997 166.168H697.989ZM433.569 166.382L395.635 220.126L400.627 228.187L453.463 226.962C456.51 226.478 461.847 219.658 460.369 216.355L440.384 167.121C439.538 164.574 435.244 165.001 433.569 166.382ZM382.218 219.978L380.938 167.236L310.259 177.647L310.3 181.632C333.307 194.942 356.954 208.155 380.404 220.742C381.02 220.603 381.775 220.43 382.218 219.978ZM697.11 201.803C697.784 198.36 702.562 197.884 702.603 194.729L695.755 167.261L644.808 167.729L644.742 172.602L697.11 201.811V201.803ZM622.696 169.972L592.349 181.073L605.232 205.714L606.808 205.238C608.713 199.864 624.708 178.164 624.1 174.335C623.903 173.078 622.392 171.616 622.696 169.972ZM785.343 175.412C782.699 174.368 780.655 172.897 779.382 170.301L776.336 171.123L718.639 202.025V213.964L761.844 236.896L785.327 175.403L785.343 175.412ZM647.041 232.344L694.483 212.485L695.755 210.644L695.394 204.556L642.845 173.777C640.735 175.494 636.35 176.537 636.359 179.438L647.049 232.344H647.041ZM794.507 175.313L786.912 177.351L763.462 237.931L817.653 268.16L823.901 261.201L794.515 175.313H794.507ZM626.292 176.899L607.555 207.612L627.606 241.448C630.586 240.207 645.661 235.319 645.998 232.739L634.741 179.61L633.633 178.444L626.3 176.899H626.292ZM588.309 181.492L563.373 190.883L562.733 191.771C564.309 197.49 559.383 198.114 563.381 203.077C568.102 208.927 583.407 224.448 589.229 228.943C589.804 229.386 590.14 230.183 591.068 230.019L604.386 207.596C602.53 203.972 591.93 182.716 590.009 181.706C589.368 181.369 588.991 181.418 588.317 181.484L588.309 181.492ZM543.593 189.774C537.591 190.054 519.856 181.204 515.471 182.437C514.568 182.692 510.479 186.142 509.395 187.071C502.531 192.938 495.675 200.645 488.885 206.873C486.914 208.68 474.902 217.735 475.247 219.682L478.252 222.123L543.174 195.912L543.593 189.774ZM375.436 231.457L378.425 222.821L309.602 183.768C301.301 186.783 303.362 191.352 305.062 198.278C308.658 212.92 313.823 227.324 317.739 241.892L375.436 231.457ZM224.276 212.6L224.966 215.262L252.406 242.631C254.606 243.617 260.781 239.731 264.032 241.366L289.535 187.999C288.32 186.052 286.004 183.891 283.558 184.737L224.276 212.6ZM192.771 185.978L173.607 220.899L179.888 229.986L219.67 212.181L192.779 185.978H192.771ZM300.94 189.848L290.775 190.489L266.397 242.229C269.887 244.077 272.268 247.438 272.925 251.357C285.274 247.816 300.587 247.348 312.624 243.535C313.626 243.215 315.095 242.861 315.416 241.727L300.948 189.848H300.94ZM550.457 202.707C547.05 202.378 545.95 199.626 543.922 197.457L480.198 223.29C477.661 225.04 480.247 228.712 479.877 231.465L534.044 252.836L550.466 202.715L550.457 202.707ZM552.083 203.529L536.786 252.54C536.819 254.118 538.388 254.455 539.529 255.055C541.959 256.337 555.95 262.326 557.666 262.047C559.612 261.735 562.667 255.638 569.063 255.876C571.173 255.959 574.031 258.062 575.55 257.101C578.448 249.829 586.289 241.53 588.818 234.579C589.13 233.716 589.483 232.952 589.262 232.007L559.21 201.918L552.067 203.529H552.083ZM606.726 210.283L605.149 210.759C603.819 214.95 592.702 228.811 593.022 231.933C593.096 232.673 593.449 232.993 593.761 233.519C594.295 234.423 607.522 247.652 608.606 248.366C609.091 248.687 609.477 249.114 610.133 249.057L624.97 242.566L606.718 210.283H606.726ZM700.92 217.242L695.517 214.194L648.921 234.604L659.3 289.293C662.149 288.693 666.476 291.479 668.258 288.932L700.912 217.242H700.92ZM249.294 249.813L251.289 243.765L222.174 214.966L218.898 215.188C214.76 218.294 180.923 230.808 180.225 232.813C179.133 235.943 181.44 237.389 184.215 237.767L249.302 249.804L249.294 249.813ZM716.061 215.763C714.854 216.067 713.138 217.916 711.66 218.277L711.044 219.633L732.359 279.746L734.108 281.036L742.36 280.904L760.276 238.942L719.838 216.207C718.622 215.508 717.415 215.426 716.061 215.771V215.763ZM724.501 293.853C725.084 288.036 727.794 285.267 731.119 280.978L709.574 220.364L708.129 218.77C702.833 217.628 702.373 219.871 700.378 223.7C695.46 233.125 691.699 243.412 687.126 253.042C681.912 264.011 674.333 276.705 670.064 287.691C668.348 292.111 670.639 296.261 674.769 297.83L724.501 293.862V293.853ZM456.181 228.532L401.169 230.027C399.732 233.199 399.354 235.442 397.17 238.35C396.349 239.451 394.001 239.591 394.682 241.67L410.176 269.647C413.222 270.403 416.219 268.842 419.734 270.806L458.111 236.165C457.306 233.412 455.385 231.827 456.181 228.54V228.532ZM318.593 243.806L330.819 293.451C332.116 295.612 336.722 294.815 339.054 294.322C352.725 275.966 367.653 258.095 380.01 238.917C377.538 236.847 377.505 232.393 373.712 233.075L318.593 243.806ZM478.35 233.207C478.096 235.992 473.539 237.085 472.997 238.967C472.365 241.185 474.984 245.4 475.353 247.758L504.896 320.138C506.037 321.962 508.541 321.461 510.413 321.214L533.666 254.841L478.342 233.207H478.35ZM591.249 234.669C589.533 235.187 579.532 254.537 577.216 257.265C576.757 258.711 577.652 261.431 579.113 261.907C580.279 262.294 581.314 261.957 582.422 261.653C586.125 260.65 600.863 253.863 604.493 251.776C605.297 251.308 606.258 251.078 606.693 250.117C606.997 249.106 606.512 248.638 606.012 247.89C605.174 246.633 594.722 236.181 593.465 235.335C592.718 234.834 592.267 234.357 591.249 234.661V234.669ZM647.041 236.14C646.097 235.195 630.463 242.311 628.008 243.412L655.375 289.646L657.69 290.148L647.041 236.14ZM470.493 240.076L460.352 237.693L456.575 239.969L421.54 271.882L422.854 278.217C441.812 290.493 460.952 302.653 480.272 314.345C482.735 315.841 497.785 325.158 499 324.978C499.912 324.846 503.976 322.085 503.032 320.557L470.493 240.076ZM249.237 251.464C226.411 246.723 203.322 242.089 180.225 239.279C179.773 243.872 176.349 246.649 174.034 250.215L207.156 291.733L209.012 291.273L249.393 260.157C251.117 257.848 248.892 254.274 249.237 251.456V251.464ZM392.901 242.393L382.013 240.963L340.77 295.866C342.486 298.233 344.342 300.221 347.462 298.948C364.877 291.717 386.8 288.332 403.698 280.641C408.009 278.677 405.792 274.816 408.92 271.348L392.909 242.393H392.901ZM815.017 278.669C814.36 275.933 816.766 271.02 815.107 269.228L762.977 240.709L760.933 242.434L745.086 281.438C745.119 283.205 748.97 288.463 750.858 288.636L815.025 278.669H815.017ZM90.514 256.033C90.514 258.703 89.5533 262.294 91.5239 264.315L140.986 293.056L155.839 254.019C155.708 252.639 150.272 249.394 148.572 247.561C146.766 245.606 146.117 242.138 143.301 242.179L90.514 256.024V256.033ZM648.297 288.135C649.603 289.31 650.374 291.733 652.747 292.415L653.552 289.351L626.506 244.842L611.669 250.585L639.84 279.45C641.852 283.147 645.292 285.415 648.297 288.126V288.135ZM316.13 245.409L273.836 252.631L270.741 259.36L328.027 295.48L329.021 292.268L316.13 245.409ZM171.538 251.481L157.695 255.145L143.63 293.558L145.666 296.121L178.887 314.337C180.315 314.206 199.414 299.112 201.795 296.976C202.739 296.129 205.235 294.157 205.128 292.95C196.277 282.153 188.272 270.025 179.363 259.368C178.049 257.799 173.016 251.349 171.538 251.489V251.481ZM650.842 296.236C651.754 291.816 648.987 291.676 646.638 289.408C634.183 277.379 623.238 263.526 609.805 252.425L606.742 252.458L580.443 264.282L580.566 272.737L650.834 296.228L650.842 296.236ZM535.3 255.967L513.345 319.629C513.254 326.687 518.616 320.261 520.825 317.936C533.946 304.165 546.459 289.77 559.506 275.925C559.842 274.569 557.822 272.441 557.478 270.584C557.092 268.513 557.905 265.186 556.566 263.888C555.86 263.197 540.194 256.805 538.305 256.295C537.304 256.024 536.351 255.679 535.3 255.967ZM259.221 263.534C255.756 264.208 253.531 259.861 250.895 260.856L209.152 293.681L243.046 337.96L249.368 336.818L259.229 263.526L259.221 263.534ZM324.571 309.859C323.626 305.266 323.109 301.396 325.958 297.362L271.677 262.072C270.01 260.313 261.561 263.649 260.789 264.717L250.912 337.245C252.685 337.804 254.574 338.247 256.216 339.176C258.351 340.384 260.444 343.613 262.275 343.112L324.571 309.867V309.859ZM89.3727 265.925L83.1161 271.176L108.808 348.954C109.645 350.86 116.534 350.63 118.045 350.12C120.853 349.159 137.989 301.478 140.526 295.209L89.3809 265.925H89.3727ZM649.217 297.863L580.304 274.298C578.276 274.002 576.765 276.245 575.673 277.774L585.501 316.761L649.25 303.015L649.225 297.871L649.217 297.863ZM573.973 278.053C569.589 278.193 566.124 279.203 562.109 276.582L560.721 277.149L517.072 324.649C519.33 326.958 520.11 330.664 524.134 329.653L582.849 316.802L573.973 278.061V278.053ZM749.733 290.189C750.423 295.801 748.452 299.26 745.168 303.426L768.314 368.509C769.472 369.947 775.548 367.893 778.077 369.183L822.612 287.633L814.705 280.255L749.733 290.181V290.189ZM408.033 282.021C407.204 281.331 406.301 280.986 405.233 281.364L345.254 301.996L346.009 307.542L389.485 321.239L409.454 284.881C409.593 284.199 408.518 282.432 408.025 282.03L408.033 282.021ZM497.999 326.679L422.492 281.109C420.555 282.252 418.904 283.977 420.013 286.352L441.845 338.749C446.772 337.796 451.821 336.957 454.03 342.512L492.112 337.138C498.303 335.971 495.388 330.951 497.999 326.679ZM418.034 285.711C415.817 285.661 411.777 284.897 410.16 286.335L392.318 321.65L440.203 340.351L418.034 285.711ZM181.76 316.679L234.695 345.568C237.232 346.209 239.236 341.403 240.853 339.858L206.82 295.809L182.368 314.058L181.752 316.679H181.76ZM726.02 295.579L674.136 299.383L671.624 307.279L712.037 335.791L729.625 303.836L726.02 295.571V295.579ZM124.367 353.547C125.09 354.122 125.426 355.773 126.518 356.275L176.325 315.644L142.168 297.05L120.976 349.307L120.943 351.632C122.125 352.207 123.316 352.709 124.359 353.547H124.367ZM731.899 303.968L714.287 337.311L762.189 370.843C763.659 372.272 767.066 371.434 766.861 369.207L744.536 306.343C742.573 302.053 735.988 306.162 731.891 303.968H731.899ZM649.98 304.716L586.297 318.388L599.895 367.424C604.378 365.765 608.138 369.002 611.669 367.745L653.527 311.461L649.989 304.724L649.98 304.716ZM388.5 322.866L346.075 309.3C343.39 308.947 342.536 312.497 340.811 314.099L363.917 357.113C366.462 356.85 369.919 357.942 371.815 355.987L388.508 322.866H388.5ZM668.914 310.065C667.904 310.311 665.343 312.045 665.326 313.269L676.074 380.135C677.125 382.945 684.572 379.971 686.97 382.863L710.822 337.828C699.237 329.472 687.512 319.875 675.269 312.48C673.414 311.363 671.263 309.481 668.914 310.056V310.065ZM329.784 313.885L325.351 311.01L262.349 345.445L263.926 353.16L317.041 359.824C318.782 354.467 331.09 316.063 329.784 313.885ZM669.694 387.35C670.097 387.111 675.311 380.801 674.448 379.585L664.333 315.077C663.561 310.558 659.168 313.647 655.884 311.601L612.235 369.635C615.208 373.587 616.907 377.851 616.62 382.962C629.741 383.397 642.722 385.813 655.794 386.75C657.608 386.881 669.095 387.703 669.694 387.35ZM319.332 360.095L355.402 364.696L361.782 358.074L338.537 314.608L331.558 315.356L319.332 360.103V360.095ZM178.41 317.649L128.013 357.096L129.548 363.201L234.137 352.914C234.958 352.035 236.067 348.51 234.925 347.598L178.419 317.657L178.41 317.649ZM583.834 319.144L522.845 331.362C521.055 332.323 521.317 335.618 520.89 337.574L592.538 372.354L597.448 366.759L583.834 319.144ZM439.341 341.978L391.267 323.729L373.392 358.074L377.982 363.834L437.732 348.206C439.489 347.738 439.948 342.939 439.341 341.986V341.978ZM455.45 344.188C455.45 347.302 455.803 349.734 454.219 352.52L474.04 369.281L500.257 343.769C497.662 342.175 497.867 337.935 494.583 337.993L455.442 344.188H455.45ZM711.807 339.726C709.656 346.004 688.087 381.36 688.973 384.687L692.627 390.201L759.66 381.877L762.411 373.431L714.131 339.767L711.799 339.726H711.807ZM542.977 420.865L552.732 421.358L591.322 386.388C589.229 382.97 589.836 378.796 590.6 375.049C590.403 373.998 589.073 373.447 588.252 372.921C582.323 369.068 572.61 365.033 565.951 361.763C552.978 355.395 537.468 347.023 524.372 341.748C522.886 341.148 521.424 340.441 519.79 340.302C518.452 343.794 514.387 343.588 514.872 347.384L542.986 420.873L542.977 420.865ZM501.595 345.798C499.173 348.222 496.324 350.227 493.795 352.503C490.1 355.839 478.999 366.11 476.667 369.602C476.174 370.341 475.682 370.81 475.994 371.82L537.016 423.921C538.461 422.82 540.982 422.171 540.473 420.043L513.074 347.721L511.325 346.431L501.595 345.807V345.798ZM437.797 397.275L444.826 358.23C445.737 353.563 440.975 353.497 439.439 349.825L379.509 365.592L378.762 372.149L430.834 400.307L437.797 397.275ZM447.215 355.732C445.195 357.721 441.049 390.505 439.604 395.689C439.661 397.513 442.814 398.384 444.407 398.91L472.168 371.163L453.858 354.401C452.963 353.793 447.543 355.404 447.207 355.732H447.215ZM235.451 355.757L233.152 355.067C198.732 358.509 164.181 361.114 129.918 365.806C128.801 366.521 127.635 371.623 129.17 372.691L190.07 409.986C194.627 407.045 198.954 406.971 203.683 409.575L238.111 363.727L238.546 361.467L235.443 355.765L235.451 355.757ZM316.261 361.656L263.039 354.804C262.431 360.44 257.677 362.585 253.974 365.954L282.917 439.87C285.594 439.829 290.003 441.193 291.333 438.268C300.94 413.174 309.093 387.555 316.253 361.648L316.261 361.656ZM317.854 362.494C310.637 388.105 302.804 413.626 292.819 438.3C292.179 440.034 293.238 441.595 294.938 441.981C295.948 442.211 302.508 435.186 303.723 433.929C318.363 418.811 333.84 401.786 347.832 386.01C349.425 384.211 356.913 376.109 357.176 374.795C357.438 373.48 356.642 366.586 354.466 366.422C350.057 365.814 319.25 361.295 317.854 362.503V362.494ZM281.226 441.472L252.307 366.668C250.583 364.319 244.228 366.956 241.33 363.932L240.229 364.286L204.8 411.169C207.181 414.16 208.117 417.25 208.626 421.005L274.181 445.966L281.218 441.472H281.226ZM449.498 409.403C450.212 410.118 458.168 411.818 459.966 412.246C479.475 416.806 499.444 420.857 519.133 424.562C522.311 425.162 530.111 427.101 532.632 427.101C533.896 427.101 534.479 427.027 535.251 425.926L474.696 373.184C473.539 372.954 472.25 374.277 471.371 374.951C462.914 381.475 455.106 392.731 446.64 399.707C445.474 401.572 447.699 402.665 448.208 404.235C448.668 405.664 448.594 408.499 449.498 409.411V409.403ZM429.513 401.277L378.803 373.932C377.243 373.546 372.119 378.451 370.37 379.651L373.285 425.548L427.534 408.704L428.667 407.554L429.504 401.285L429.513 401.277ZM368.728 379.141C364.91 380.776 361.109 375.033 358.44 376.8L297.598 442.302C296.416 443.329 299.585 447.56 300.291 448.012C303.428 450.009 362.981 427.775 371.43 426.362L368.728 379.149V379.141ZM653.938 460.469C658.364 460.962 659.398 464.758 662.485 466.532C696.88 442.442 730.807 417.545 763.248 390.948L759.956 384.474L693.9 391.425L693.029 392.074C692.003 402.969 683.308 405.311 673.751 403.594L653.946 460.477L653.938 460.469ZM668.34 389.034L617.728 384.416C614.181 384.852 613.171 390.727 608.967 391.811L640.3 460.444L651.869 458.891L653.314 457.297L672.576 401.178C669.908 397.349 667.568 394.03 668.348 389.034H668.34ZM607.333 393.003C604.484 392.378 602.038 392.699 599.123 391.704C596.52 390.817 593.515 387.736 591.552 388.623L553.857 422.525C552.699 425.096 558.052 430.429 556.657 434.184L635.94 466.516C637.878 464.815 639.462 462.35 638.329 459.754L607.333 392.994V393.003ZM374.139 427.159C373.991 429.509 373.942 431.933 374.057 434.291C374.763 448.694 377.292 467.642 379.575 482.012C380.281 486.441 381.159 486.704 385.683 487.033L432.411 416.789L427.033 409.666L374.131 427.151L374.139 427.159ZM533.732 428.597L449.547 411.235L443.996 417.578L455.541 452.425C459.383 454.577 462.881 455.793 466.404 458.981L533.272 433.995L533.732 428.597ZM442.379 418.047L434.48 417.882L388.089 487.197L388.073 488.66L392.326 492.899L448.455 465.735C448.726 463.944 448.389 462.301 448.923 460.485C449.67 457.938 453.956 454.947 453.972 454.084L442.395 418.03L442.379 418.047ZM378.54 486.343L371.273 428.654L301.909 451.135C301.983 454.052 300.702 458.201 303.346 460.132L369.705 491.626C372.39 489.49 374.87 486.614 378.54 486.334V486.343ZM534.463 435.449L467.29 460.46C466.428 461.134 466.609 464.38 466.946 465.366C467.857 468.036 513.64 482.916 519.552 485.578L538.938 443.28L534.463 435.449ZM633.994 478.677C633.321 474.831 636.843 469.104 632.36 467.231L557.354 436.485L552.338 441.538L574.146 493.894C581.108 493.36 585.189 494.584 590.247 499.202L633.994 478.668V478.677ZM550.416 443.058L540.178 444.545L521.629 485.948L568.217 501.535L572.906 493.951L550.416 443.066V443.058ZM448.373 467.494L394.6 494.419C392.466 495.8 392.712 498.766 393.41 500.894L483.523 540.063L487.234 535.617L458.768 472.793L448.381 467.502L448.373 467.494ZM499.411 534.985L518.961 487.928L466.042 467.74L461.633 471.331C461.075 472.284 461.74 473.853 462.019 474.856C466.19 489.818 479.048 513.507 485.962 528.494C486.914 530.556 487.727 532.774 488.195 535.001H499.411V534.985ZM567.084 503.244L521.285 488.742L500.602 536.603L505.627 540.087L568.71 510.713L567.092 503.244H567.084Z" fill="white" fill-opacity="0.2"/>
</g>
<defs>
<linearGradient id="paint0_linear_326_213" x1="487" y1="134.5" x2="0" y2="134.5" gradientUnits="userSpaceOnUse">
<stop stop-color="#004FED"/>
<stop offset="0.759615" stop-color="#002D87"/>
</linearGradient>
</defs>
</svg>
