<svg width="943" height="656" viewBox="0 0 943 656" fill="none" xmlns="http://www.w3.org/2000/svg">
<path d="M507.12 15.4974L612.07 31.2074C614.97 26.5674 615.54 21.7374 620.63 18.5274C636.1 8.73741 651.92 25.8774 646.04 41.8374L728.07 83.0674L729.31 82.7874C736.91 63.9274 764.36 70.4574 763.6 90.0974C763.5 92.7774 761 95.8774 762.12 97.9774C762.98 99.5974 779.16 109.427 782.16 111.337C809.47 128.667 837.77 144.507 865.12 161.767L866.27 161.807C867.18 157.997 872.68 155.297 876.3 154.687C895.52 151.457 904.64 177.847 887.83 187.037L887.86 189.847L923.43 293.217C949.12 292.847 949.45 327.437 922.15 325.427L867.66 424.747C867.39 426.467 873.29 430.657 874.55 432.797C884.16 449.187 860.53 464.967 848.29 451.667C808.74 484.157 767.33 514.257 725.56 543.797L724.82 544.757C731.09 566.157 702.98 578.007 691.61 558.967L637.59 583.557L636.66 585.397C639.57 604.387 622.25 608.787 609.53 598.057L533.1 634.557C539.66 657.197 504.87 665.377 503.3 641.847C503.06 638.227 505.58 635.007 501.8 633.217L396.16 586.027C393.99 585.687 392.24 590.187 390.81 591.447C382.97 598.317 367.84 592.817 366.34 582.557C365.99 580.177 367.08 575.727 365.34 574.297L282.89 535.367C269.67 556.257 244.04 542.827 250.4 519.847L246.49 517.207L169.14 488.807C162.64 501.037 142.75 495.487 144.95 480.867C145.22 479.087 147.48 476.377 146.64 474.927L73.62 429.797L71.47 429.547C63.75 438.377 48.21 438.887 41.91 428.227C37.06 420.007 37.63 412.027 43.91 404.837C44.91 403.697 47.52 402.607 47.69 401.917C48.32 399.397 46.01 392.697 45.15 389.807C36.72 361.637 24.1 334.637 16.91 306.017C14.64 301.627 3.91999 302.847 0.889994 294.257C-3.34001 282.237 8.26002 272.567 19.82 276.647L79.69 154.457C80.58 150.817 75.25 148.177 73.42 143.977C62.94 119.907 97.07 106.527 107.86 129.987L191.24 93.8074L192.03 92.7974C182.16 68.2074 211.15 52.5574 226.43 73.5074L328.29 29.9474C330.25 25.0074 328.15 20.4674 331.2 15.2674C340.82 -1.14258 361.68 9.82741 361.24 26.8074L440.97 52.3874L443.99 51.1874L477.45 23.5174L478.34 21.5474C470.83 -2.14259 507.03 -9.3126 507.12 15.4874V15.4974ZM616.18 45.9874L613.37 34.7174L611.97 33.3374L507.43 17.6874L501.69 26.2074L549.3 81.1974C552.02 80.1874 555.46 77.7974 558.41 77.7474C562.4 77.6774 566.02 81.6874 569.97 79.8874L616.18 45.9774V45.9874ZM481.88 24.0774C481.02 23.5674 480.04 23.8974 479.25 24.3774L445.92 53.0774C450.03 55.3374 475.09 64.0074 477.43 62.3974L487.19 28.5374C484.69 28.3774 482.23 24.2774 481.89 24.0774H481.88ZM378.44 89.4974C384.3 89.1674 388.44 90.4574 393.1 93.8574L439.41 54.9274L359.74 28.9774C358.43 31.7674 353.03 35.3174 353.42 38.0474L378.44 89.5074V89.4974ZM546.85 85.0174L545.96 81.7474L501.06 29.4374C497.59 27.1874 493.47 30.0174 489.53 29.5774C488.89 34.8874 478.6 61.8374 480.57 64.6974L546.85 85.0174ZM338.31 37.0374L329.19 31.6674L230.37 74.6274C226.26 76.3974 229.84 82.3674 229.58 86.0074L311.51 102.537L338.3 37.0374H338.31ZM376.31 91.3574L351.47 39.1274L349.95 38.0074L341.86 38.8774L314.39 102.607L368.5 103.587C369.88 99.0074 371.26 93.1974 376.31 91.3574ZM728.23 85.1574L645.97 44.7174L642.88 44.2574L637.56 48.6274L665.11 113.587L727.2 95.4174L729.15 93.7274L728.23 85.1574ZM624.61 48.9874C622.1 48.4574 620.07 46.1074 617.52 47.7574C612.32 52.6074 570.92 80.0174 570.07 82.8474C569.55 84.5674 573.51 89.7274 571.13 95.8674C570.44 97.6374 567.49 99.5074 568.56 101.657L594.98 126.307L607.8 121.417L624.61 48.9874ZM610.02 124.647L616.5 127.397L661.63 114.067L634.23 49.9374C631.55 50.7674 627.14 49.8874 625.75 52.3274L610.03 124.647H610.02ZM462.44 112.657L476.25 66.9274C476.08 65.7774 472.36 64.4474 471.15 63.9474C466.61 62.0774 448.4 55.9474 444.28 55.5674C442.41 55.3874 441.21 56.0674 439.88 57.2474L395.15 95.7874L398.37 105.407L462.44 112.657ZM544.87 87.9274L479.48 67.1174L465.42 112.217C465.92 113.917 477.29 115.067 479.84 115.437C490.38 116.967 501.13 117.597 511.69 118.917L544.07 98.4374L544.87 87.9274ZM310.69 104.467L229.6 88.0874L220.24 101.217L268.63 173.937C271.95 170.917 282.61 173.167 284.31 171.127L310.69 104.467ZM171.63 157.097L199.17 101.727L193.4 95.3574L108.91 132.827L109.32 141.607L171.63 157.097ZM684.99 165.417C688.92 164.777 693.91 168.367 696.37 164.577L734.49 103.577L730.21 97.4674L666.4 115.657C664.38 118.467 682.97 159.217 684.98 165.407L684.99 165.417ZM570.33 106.917C569.12 105.797 568.6 103.407 566.63 102.747C562.01 104.717 556.59 105.777 551.75 103.727C549.97 102.977 547.17 99.8474 545.62 99.9874C543.95 100.137 520.34 115.837 517.47 118.077C516.72 118.667 515.76 118.057 516.3 120.187L594.09 129.437C586.66 121.447 578.3 114.327 570.33 106.907V106.917ZM760.31 100.087L750.64 108.547L767.26 174.367C783.39 174.117 799.72 174.347 815.94 173.927C818.13 173.867 820.16 172.977 822.35 172.927C828.45 172.767 860.78 174.177 863.16 171.137C863.68 168.607 865.6 165.327 863.6 163.257L760.33 100.087H760.31ZM218.81 102.797L200.92 103.517L174 158.187L263.31 182.067L266.75 175.817L218.81 102.797ZM286.8 173.707C287.02 174.077 290.27 175.577 290.91 176.567L371.69 114.367C368.7 103.187 364.79 106.917 355.61 106.307C343.91 105.527 333.05 105.557 321.3 105.437C318.35 105.407 315.54 103.427 312.75 105.617L287.49 167.837C286.98 169.417 285.94 172.257 286.8 173.717V173.707ZM701.66 176.517C718.36 175.747 736.41 176.827 752.95 175.777C754.77 175.657 763.52 174.667 764.07 173.897L747.85 107.647C743.98 106.927 740.33 107.507 737.14 104.667L697.02 167.107L701.65 176.507L701.66 176.517ZM451.25 151.457L461.27 115.517L397.81 107.267L396.06 114.477L438.92 153.597C440.2 155.077 450.84 151.957 451.24 151.457H451.25ZM436.54 167.317C435.43 163.077 439.49 158.067 437.63 154.877L393.73 115.687L383.32 120.127L384.71 174.417L436.54 167.317ZM507.95 121.137L464.38 115.997L453.73 152.587L457.71 155.247L459.73 154.947L507.94 121.147L507.95 121.137ZM294.95 187.777L381.09 175.307L380.23 119.657C378.02 118.617 375.08 115.877 372.76 116.927L293.27 179.127L294.95 187.787V187.777ZM616.31 129.467C618.3 134.017 615.46 139.947 619.68 143.217L674.41 172.847C677.19 173.237 679.37 167.697 682.59 166.517L663.56 117.867L658.69 117.657L616.3 129.467H616.31ZM511.39 122.237L460.19 157.207L461.77 166.817L463.19 168.177C486.61 174.797 509.49 183.697 532.96 190.077C537.46 191.297 543.26 194.327 547.32 191.477L594.87 146.437C593.09 141.837 590.7 138.047 591.18 132.817L589.77 131.457L519.53 122.057C516.92 122.137 513.92 121.657 511.4 122.237H511.39ZM108.41 143.487C107.01 143.817 103.87 149.807 105.94 151.247L151.41 194.787L168.26 163.447L168.59 159.957L108.4 143.497L108.41 143.487ZM635.9 191.327C636.97 192.007 639.99 191.377 641.38 191.067C646.67 189.877 667.01 182.407 671.88 179.907C675.72 177.937 675.7 176.557 672.19 174.037C657.68 163.617 635.82 156.227 620.69 145.907C617.54 144.237 614.95 145.257 613.03 147.987L612.97 149.807L635.9 191.317V191.327ZM598.71 148.897L595.41 149.747L547.8 193.797L578.94 203.487C583.24 201.957 585.76 198.357 591.1 197.737L598.71 148.897ZM633.84 193.257L633.19 189.897C628.87 184.827 613.19 150.867 609.18 149.977L601.54 150.807L593.57 197.967L601.91 204.407L633.83 193.257H633.84ZM127.24 242.337L149.41 197.687L101.97 150.817L96.2 154.417L111.58 236.357L113.4 239.167L127.23 242.337H127.24ZM109.63 240.467L94.07 157.597C92.25 153.707 85.76 154.547 82.02 153.587L21.86 277.847L28.28 283.647L91.52 267.247L92.93 265.877C91.68 254.437 97.43 242.187 109.64 240.457L109.63 240.467ZM263.4 196.957C261.89 193.047 264.15 186.777 260.43 184.797L173.17 160.897L170.95 162.427L153.45 197.357L187.97 231.957L263.41 196.947L263.4 196.957ZM438.31 169.467L384.69 177.967C382.42 181.827 384.73 186.197 384.82 190.057C385.18 204.427 383.15 222.747 384.76 236.397C384.97 238.147 385.28 239.737 386.58 241.037L397.58 241.317L442.43 177.297L442.71 174.837L438.3 169.457L438.31 169.467ZM541.29 194.267L461.7 169.657L455.34 175.407L481.69 239.527L494.94 239.187C507.02 227.137 520.2 216.267 532.5 204.477C533.84 203.197 542.26 195.377 541.27 194.277L541.29 194.267ZM767.27 176.677L775.11 211.877C782 212.907 785.69 214.787 790.86 219.247L863.02 180.277L864.58 177.147C864.42 174.977 862.1 174.457 860.37 174.367C839.96 173.347 816.23 176.147 795.56 176.707C786.15 176.957 776.68 176.437 767.28 176.677H767.27ZM445.23 176.937L399.03 242.347L405.11 252.157L469.46 250.667C473.17 250.077 479.67 241.777 477.87 237.757L453.53 177.837C452.5 174.737 447.27 175.257 445.23 176.937ZM382.69 242.167L381.13 177.977L295.05 190.647L295.1 195.497C323.12 211.697 351.92 227.777 380.48 243.097C381.23 242.927 382.15 242.717 382.69 242.167ZM766.2 220.047C767.02 215.857 772.84 215.277 772.89 211.437L764.55 178.007L702.5 178.577L702.42 184.507L766.2 220.057V220.047ZM675.57 181.307L638.61 194.817L654.3 224.807L656.22 224.227C658.54 217.687 678.02 191.277 677.28 186.617C677.04 185.087 675.2 183.307 675.57 181.307ZM873.66 187.927C870.44 186.657 867.95 184.867 866.4 181.707L862.69 182.707L792.42 220.317V234.847L845.04 262.757L873.64 187.917L873.66 187.927ZM705.22 257.217L763 233.047L764.55 230.807L764.11 223.397L700.11 185.937C697.54 188.027 692.2 189.297 692.21 192.827L705.23 257.217H705.22ZM884.82 187.807L875.57 190.287L847.01 264.017L913.01 300.807L920.62 292.337L884.83 187.807H884.82ZM679.95 189.737L657.13 227.117L681.55 268.297C685.18 266.787 703.54 260.837 703.95 257.697L690.24 193.037L688.89 191.617L679.96 189.737H679.95ZM633.69 195.327L603.32 206.757L602.54 207.837C604.46 214.797 598.46 215.557 603.33 221.597C609.08 228.717 627.72 247.607 634.81 253.077C635.51 253.617 635.92 254.587 637.05 254.387L653.27 227.097C651.01 222.687 638.1 196.817 635.76 195.587C634.98 195.177 634.52 195.237 633.7 195.317L633.69 195.327ZM579.23 205.407C571.92 205.747 550.32 194.977 544.98 196.477C543.88 196.787 538.9 200.987 537.58 202.117C529.22 209.257 520.87 218.637 512.6 226.217C510.2 228.417 495.57 239.437 495.99 241.807L499.65 244.777L578.72 212.877L579.23 205.407ZM374.43 256.137L378.07 245.627L294.25 198.097C284.14 201.767 286.65 207.327 288.72 215.757C293.1 233.577 299.39 251.107 304.16 268.837L374.43 256.137ZM190.33 233.187L191.17 236.427L224.59 269.737C227.27 270.937 234.79 266.207 238.75 268.197L269.81 203.247C268.33 200.877 265.51 198.247 262.53 199.277L190.33 233.187ZM151.96 200.787L128.62 243.287L136.27 254.347L184.72 232.677L151.97 200.787H151.96ZM283.7 205.497L271.32 206.277L241.63 269.247C245.88 271.497 248.78 275.587 249.58 280.357C264.62 276.047 283.27 275.477 297.93 270.837C299.15 270.447 300.94 270.017 301.33 268.637L283.71 205.497H283.7ZM587.59 221.147C583.44 220.747 582.1 217.397 579.63 214.757L502.02 246.197C498.93 248.327 502.08 252.797 501.63 256.147L567.6 282.157L587.6 221.157L587.59 221.147ZM589.57 222.147L570.94 281.797C570.98 283.717 572.89 284.127 574.28 284.857C577.24 286.417 594.28 293.707 596.37 293.367C598.74 292.987 602.46 285.567 610.25 285.857C612.82 285.957 616.3 288.517 618.15 287.347C621.68 278.497 631.23 268.397 634.31 259.937C634.69 258.887 635.12 257.957 634.85 256.807L598.25 220.187L589.55 222.147H589.57ZM656.12 230.367L654.2 230.947C652.58 236.047 639.04 252.917 639.43 256.717C639.52 257.617 639.95 258.007 640.33 258.647C640.98 259.747 657.09 275.847 658.41 276.717C659 277.107 659.47 277.627 660.27 277.557L678.34 269.657L656.11 230.367H656.12ZM770.84 238.837L764.26 235.127L707.51 259.967L720.15 326.527C723.62 325.797 728.89 329.187 731.06 326.087L770.83 238.837H770.84ZM220.8 278.477L223.23 271.117L187.77 236.067L183.78 236.337C178.74 240.117 137.53 255.347 136.68 257.787C135.35 261.597 138.16 263.357 141.54 263.817L220.81 278.467L220.8 278.477ZM789.28 237.037C787.81 237.407 785.72 239.657 783.92 240.097L783.17 241.747L809.13 314.907L811.26 316.477L821.31 316.317L843.13 265.247L793.88 237.577C792.4 236.727 790.93 236.627 789.28 237.047V237.037ZM799.56 332.077C800.27 324.997 803.57 321.627 807.62 316.407L781.38 242.637L779.62 240.697C773.17 239.307 772.61 242.037 770.18 246.697C764.19 258.167 759.61 270.687 754.04 282.407C747.69 295.757 738.46 311.207 733.26 324.577C731.17 329.957 733.96 335.007 738.99 336.917L799.56 332.087V332.077ZM472.77 252.577L405.77 254.397C404.02 258.257 403.56 260.987 400.9 264.527C399.9 265.867 397.04 266.037 397.87 268.567L416.74 302.617C420.45 303.537 424.1 301.637 428.38 304.027L475.12 261.867C474.14 258.517 471.8 256.587 472.77 252.587V252.577ZM305.2 271.167L320.09 331.587C321.67 334.217 327.28 333.247 330.12 332.647C346.77 310.307 364.95 288.557 380 265.217C376.99 262.697 376.95 257.277 372.33 258.107L305.2 271.167ZM499.77 258.267C499.46 261.657 493.91 262.987 493.25 265.277C492.48 267.977 495.67 273.107 496.12 275.977L532.1 364.067C533.49 366.287 536.54 365.677 538.82 365.377L567.14 284.597L499.76 258.267H499.77ZM637.27 260.047C635.18 260.677 623 284.227 620.18 287.547C619.62 289.307 620.71 292.617 622.49 293.197C623.91 293.667 625.17 293.257 626.52 292.887C631.03 291.667 648.98 283.407 653.4 280.867C654.38 280.297 655.55 280.017 656.08 278.847C656.45 277.617 655.86 277.047 655.25 276.137C654.23 274.607 641.5 261.887 639.97 260.857C639.06 260.247 638.51 259.667 637.27 260.037V260.047ZM705.22 261.837C704.07 260.687 685.03 269.347 682.04 270.687L715.37 326.957L718.19 327.567L705.22 261.837ZM490.2 266.627L477.85 263.727L473.25 266.497L430.58 305.337L432.18 313.047C455.27 327.987 478.58 342.787 502.11 357.017C505.11 358.837 523.44 370.177 524.92 369.957C526.03 369.797 530.98 366.437 529.83 364.577L490.2 266.627ZM220.73 280.487C192.93 274.717 164.81 269.077 136.68 265.657C136.13 271.247 131.96 274.627 129.14 278.967L169.48 329.497L171.74 328.937L220.92 291.067C223.02 288.257 220.31 283.907 220.73 280.477V280.487ZM395.7 269.447L382.44 267.707L332.21 334.527C334.3 337.407 336.56 339.827 340.36 338.277C361.57 329.477 388.27 325.357 408.85 315.997C414.1 313.607 411.4 308.907 415.21 304.687L395.71 269.447H395.7ZM909.8 313.597C909 310.267 911.93 304.287 909.91 302.107L846.42 267.397L843.93 269.497L824.63 316.967C824.67 319.117 829.36 325.517 831.66 325.727L909.81 313.597H909.8ZM27.42 286.047C27.42 289.297 26.25 293.667 28.65 296.127L88.89 331.107L106.98 283.597C106.82 281.917 100.2 277.967 98.13 275.737C95.93 273.357 95.14 269.137 91.71 269.187L27.42 286.037V286.047ZM706.75 325.117C708.34 326.547 709.28 329.497 712.17 330.327L713.15 326.597L680.21 272.427L662.14 279.417L696.45 314.547C698.9 319.047 703.09 321.807 706.75 325.107V325.117ZM302.2 273.117L250.69 281.907L246.92 290.097L316.69 334.057L317.9 330.147L302.2 273.117ZM126.1 280.507L109.24 284.967L92.11 331.717L94.59 334.837L135.05 357.007C136.79 356.847 160.05 338.477 162.95 335.877C164.1 334.847 167.14 332.447 167.01 330.977C156.23 317.837 146.48 303.077 135.63 290.107C134.03 288.197 127.9 280.347 126.1 280.517V280.507ZM709.85 334.977C710.96 329.597 707.59 329.427 704.73 326.667C689.56 312.027 676.23 295.167 659.87 281.657L656.14 281.697L624.11 296.087L624.26 306.377L709.84 334.967L709.85 334.977ZM569.13 285.967L542.39 363.447C542.28 372.037 548.81 364.217 551.5 361.387C567.48 344.627 582.72 327.107 598.61 310.257C599.02 308.607 596.56 306.017 596.14 303.757C595.67 301.237 596.66 297.187 595.03 295.607C594.17 294.767 575.09 286.987 572.79 286.367C571.57 286.037 570.41 285.617 569.13 285.967ZM232.89 295.177C228.67 295.997 225.96 290.707 222.75 291.917L171.91 331.867L213.19 385.757L220.89 384.367L232.9 295.167L232.89 295.177ZM312.48 351.557C311.33 345.967 310.7 341.257 314.17 336.347L248.06 293.397C246.03 291.257 235.74 295.317 234.8 296.617L222.77 384.887C224.93 385.567 227.23 386.107 229.23 387.237C231.83 388.707 234.38 392.637 236.61 392.027L312.48 351.567V351.557ZM26.03 298.087L18.41 304.477L49.7 399.137C50.72 401.457 59.11 401.177 60.95 400.557C64.37 399.387 85.24 341.357 88.33 333.727L26.04 298.087H26.03ZM707.87 336.957L623.94 308.277C621.47 307.917 619.63 310.647 618.3 312.507L630.27 359.957L707.91 343.227L707.88 336.967L707.87 336.957ZM616.23 312.847C610.89 313.017 606.67 314.247 601.78 311.057L600.09 311.747L546.93 369.557C549.68 372.367 550.63 376.877 555.53 375.647L627.04 360.007L616.23 312.857V312.847ZM830.29 327.617C831.13 334.447 828.73 338.657 824.73 343.727L852.92 422.937C854.33 424.687 861.73 422.187 864.81 423.757L919.05 324.507L909.42 315.527L830.29 327.607V327.617ZM414.13 317.677C413.12 316.837 412.02 316.417 410.72 316.877L337.67 341.987L338.59 348.737L391.54 365.407L415.86 321.157C416.03 320.327 414.72 318.177 414.12 317.687L414.13 317.677ZM523.7 372.027L431.74 316.567C429.38 317.957 427.37 320.057 428.72 322.947L455.31 386.717C461.31 385.557 467.46 384.537 470.15 391.297L516.53 384.757C524.07 383.337 520.52 377.227 523.7 372.027ZM426.31 322.167C423.61 322.107 418.69 321.177 416.72 322.927L394.99 365.907L453.31 388.667L426.31 322.167ZM138.55 359.857L203.02 395.017C206.11 395.797 208.55 389.947 210.52 388.067L169.07 334.457L139.29 356.667L138.54 359.857H138.55ZM801.41 334.177L738.22 338.807L735.16 348.417L784.38 383.117L805.8 344.227L801.41 334.167V334.177ZM68.65 404.727C69.53 405.427 69.94 407.437 71.27 408.047L131.93 358.597L90.33 335.967L64.52 399.567L64.48 402.397C65.92 403.097 67.37 403.707 68.64 404.727H68.65ZM808.57 344.387L787.12 384.967L845.46 425.777C847.25 427.517 851.4 426.497 851.15 423.787L823.96 347.277C821.57 342.057 813.55 347.057 808.56 344.387H808.57ZM708.8 345.297L631.24 361.937L647.8 421.617C653.26 419.597 657.84 423.537 662.14 422.007L713.12 353.507L708.81 345.307L708.8 345.297ZM390.34 367.387L338.67 350.877C335.4 350.447 334.36 354.767 332.26 356.717L360.4 409.067C363.5 408.747 367.71 410.077 370.02 407.697L390.35 367.387H390.34ZM731.86 351.807C730.63 352.107 727.51 354.217 727.49 355.707L740.58 437.087C741.86 440.507 750.93 436.887 753.85 440.407L782.9 385.597C768.79 375.427 754.51 363.747 739.6 354.747C737.34 353.387 734.72 351.097 731.86 351.797V351.807ZM318.83 356.457L313.43 352.957L236.7 394.867L238.62 404.257L303.31 412.367C305.43 405.847 320.42 359.107 318.83 356.457ZM732.81 445.867C733.3 445.577 739.65 437.897 738.6 436.417L726.28 357.907C725.34 352.407 719.99 356.167 715.99 353.677L662.83 424.307C666.45 429.117 668.52 434.307 668.17 440.527C684.15 441.057 699.96 443.997 715.88 445.137C718.09 445.297 732.08 446.297 732.81 445.867ZM306.1 412.697L350.03 418.297L357.8 410.237L329.49 357.337L320.99 358.247L306.1 412.707V412.697ZM134.47 361.037L73.09 409.047L74.96 416.477L202.34 403.957C203.34 402.887 204.69 398.597 203.3 397.487L134.48 361.047L134.47 361.037ZM628.24 362.857L553.96 377.727C551.78 378.897 552.1 382.907 551.58 385.287L638.84 427.617L644.82 420.807L628.24 362.857ZM452.26 390.647L393.71 368.437L371.94 410.237L377.53 417.247L450.3 398.227C452.44 397.657 453 391.817 452.26 390.657V390.647ZM471.88 393.337C471.88 397.127 472.31 400.087 470.38 403.477L494.52 423.877L526.45 392.827C523.29 390.887 523.54 385.727 519.54 385.797L471.87 393.337H471.88ZM784.1 387.907C781.48 395.547 755.21 438.577 756.29 442.627L760.74 449.337L842.38 439.207L845.73 428.927L786.93 387.957L784.09 387.907H784.1ZM578.48 486.657L590.36 487.257L637.36 444.697C634.81 440.537 635.55 435.457 636.48 430.897C636.24 429.617 634.62 428.947 633.62 428.307C626.4 423.617 614.57 418.707 606.46 414.727C590.66 406.977 571.77 396.787 555.82 390.367C554.01 389.637 552.23 388.777 550.24 388.607C548.61 392.857 543.66 392.607 544.25 397.227L578.49 486.667L578.48 486.657ZM528.08 395.297C525.13 398.247 521.66 400.687 518.58 403.457C514.08 407.517 500.56 420.017 497.72 424.267C497.12 425.167 496.52 425.737 496.9 426.967L571.22 490.377C572.98 489.037 576.05 488.247 575.43 485.657L542.06 397.637L539.93 396.067L528.08 395.307V395.297ZM450.38 457.947L458.94 410.427C460.05 404.747 454.25 404.667 452.38 400.197L379.39 419.387L378.48 427.367L441.9 461.637L450.38 457.947ZM461.85 407.387C459.39 409.807 454.34 449.707 452.58 456.017C452.65 458.237 456.49 459.297 458.43 459.937L492.24 426.167L469.94 405.767C468.85 405.027 462.25 406.987 461.84 407.387H461.85ZM203.94 407.417L201.14 406.577C159.22 410.767 117.14 413.937 75.41 419.647C74.05 420.517 72.63 426.727 74.5 428.027L148.67 473.417C154.22 469.837 159.49 469.747 165.25 472.917L207.18 417.117L207.71 414.367L203.93 407.427L203.94 407.417ZM302.36 414.597L237.54 406.257C236.8 413.117 231.01 415.727 226.5 419.827L261.75 509.787C265.01 509.737 270.38 511.397 272 507.837C283.7 477.297 293.63 446.117 302.35 414.587L302.36 414.597ZM304.3 415.617C295.51 446.787 285.97 477.847 273.81 507.877C273.03 509.987 274.32 511.887 276.39 512.357C277.62 512.637 285.61 504.087 287.09 502.557C304.92 484.157 323.77 463.437 340.81 444.237C342.75 442.047 351.87 432.187 352.19 430.587C352.51 428.987 351.54 420.597 348.89 420.397C343.52 419.657 306 414.157 304.3 415.627V415.617ZM259.69 511.737L224.47 420.697C222.37 417.837 214.63 421.047 211.1 417.367L209.76 417.797L166.61 474.857C169.51 478.497 170.65 482.257 171.27 486.827L251.11 517.207L259.68 511.737H259.69ZM464.63 472.707C465.5 473.577 475.19 475.647 477.38 476.167C501.14 481.717 525.46 486.647 549.44 491.157C553.31 491.887 562.81 494.247 565.88 494.247C567.42 494.247 568.13 494.157 569.07 492.817L495.32 428.627C493.91 428.347 492.34 429.957 491.27 430.777C480.97 438.717 471.46 452.417 461.15 460.907C459.73 463.177 462.44 464.507 463.06 466.417C463.62 468.157 463.53 471.607 464.63 472.717V472.707ZM440.29 462.817L378.53 429.537C376.63 429.067 370.39 435.037 368.26 436.497L371.81 492.357L437.88 471.857L439.26 470.457L440.28 462.827L440.29 462.817ZM366.26 435.877C361.61 437.867 356.98 430.877 353.73 433.027L279.63 512.747C278.19 513.997 282.05 519.147 282.91 519.697C286.73 522.127 359.26 495.067 369.55 493.347L366.26 435.887V435.877ZM713.62 534.857C719.01 535.457 720.27 540.077 724.03 542.237C765.92 512.917 807.24 482.617 846.75 450.247L842.74 442.367L762.29 450.827L761.23 451.617C759.98 464.877 749.39 467.727 737.75 465.637L713.63 534.867L713.62 534.857ZM731.16 447.917L669.52 442.297C665.2 442.827 663.97 449.977 658.85 451.297L697.01 534.827L711.1 532.937L712.86 530.997L736.32 462.697C733.07 458.037 730.22 453.997 731.17 447.917H731.16ZM656.86 452.747C653.39 451.987 650.41 452.377 646.86 451.167C643.69 450.087 640.03 446.337 637.64 447.417L591.73 488.677C590.32 491.807 596.84 498.297 595.14 502.867L691.7 542.217C694.06 540.147 695.99 537.147 694.61 533.987L656.86 452.737V452.747ZM372.85 494.317C372.67 497.177 372.61 500.127 372.75 502.997C373.61 520.527 376.69 543.587 379.47 561.077C380.33 566.467 381.4 566.787 386.91 567.187L443.82 481.697L437.27 473.027L372.84 494.307L372.85 494.317ZM567.22 496.067L464.69 474.937L457.93 482.657L471.99 525.067C476.67 527.687 480.93 529.167 485.22 533.047L566.66 502.637L567.22 496.067ZM455.96 483.227L446.34 483.027L389.84 567.387L389.82 569.167L395 574.327L463.36 541.267C463.69 539.087 463.28 537.087 463.93 534.877C464.84 531.777 470.06 528.137 470.08 527.087L455.98 483.207L455.96 483.227ZM378.21 566.347L369.36 496.137L284.88 523.497C284.97 527.047 283.41 532.097 286.63 534.447L367.45 572.777C370.72 570.177 373.74 566.677 378.21 566.337V566.347ZM568.11 504.407L486.3 534.847C485.25 535.667 485.47 539.617 485.88 540.817C486.99 544.067 542.75 562.177 549.95 565.417L573.56 513.937L568.11 504.407ZM689.33 557.017C688.51 552.337 692.8 545.367 687.34 543.087L595.99 505.667L589.88 511.817L616.44 575.537C624.92 574.887 629.89 576.377 636.05 581.997L689.33 557.007V557.017ZM587.54 513.667L575.07 515.477L552.48 565.867L609.22 584.837L614.93 575.607L587.54 513.677V513.667ZM463.26 543.407L397.77 576.177C395.17 577.857 395.47 581.467 396.32 584.057L506.07 631.727L510.59 626.317L475.92 549.857L463.27 543.417L463.26 543.407ZM525.42 625.547L549.23 568.277L484.78 543.707L479.41 548.077C478.73 549.237 479.54 551.147 479.88 552.367C484.96 570.577 500.62 599.407 509.04 617.647C510.2 620.157 511.19 622.857 511.76 625.567H525.42V625.547ZM607.84 586.917L552.06 569.267L526.87 627.517L532.99 631.757L609.82 596.007L607.85 586.917H607.84Z" fill="white"/>
</svg>
