<svg xmlns="http://www.w3.org/2000/svg" width="943" height="656" fill="none" viewBox="0 0 943 656"><path fill="#fff" d="m507.12 15.497 104.95 15.71c2.9-4.64 3.47-9.47 8.56-12.68 15.47-9.79 31.29 7.35 25.41 23.31l82.03 41.23 1.24-.28c7.6-18.86 35.05-12.33 34.29 7.31-.1 2.68-2.6 5.78-1.48 7.88.86 1.62 17.04 11.45 20.04 13.36 27.31 17.33 55.61 33.17 82.96 50.43l1.15.04c.91-3.81 6.41-6.51 10.03-7.12 19.22-3.23 28.34 23.16 11.53 32.35l.03 2.81 35.57 103.37c25.69-.37 26.02 34.22-1.28 32.21l-54.49 99.32c-.27 1.72 5.63 5.91 6.89 8.05 9.61 16.39-14.02 32.17-26.26 18.87-39.55 32.49-80.96 62.59-122.73 92.13l-.74.96c6.27 21.4-21.84 33.25-33.21 14.21l-54.02 24.59-.93 1.84c2.91 18.99-14.41 23.39-27.13 12.66l-76.43 36.5c6.56 22.64-28.23 30.82-29.8 7.29-.24-3.62 2.28-6.84-1.5-8.63l-105.64-47.19c-2.17-.34-3.92 4.16-5.35 5.42-7.84 6.87-22.97 1.37-24.47-8.89-.35-2.38.74-6.83-1-8.26l-82.45-38.93c-13.22 20.89-38.85 7.46-32.49-15.52l-3.91-2.64-77.35-28.4c-6.5 12.23-26.39 6.68-24.19-7.94.27-1.78 2.53-4.49 1.69-5.94l-73.02-45.13-2.15-.25c-7.72 8.83-23.26 9.34-29.56-1.32-4.85-8.22-4.28-16.2 2-23.39 1-1.14 3.61-2.23 3.78-2.92.63-2.52-1.68-9.22-2.54-12.11-8.43-28.17-21.05-55.17-28.24-83.79-2.27-4.39-12.99-3.17-16.02-11.76-4.23-12.02 7.37-21.69 18.93-17.61l59.87-122.19c.89-3.64-4.44-6.28-6.27-10.48-10.48-24.07 23.65-37.45 34.44-13.99l83.38-36.18.79-1.01c-9.87-24.59 19.12-40.24 34.4-19.29l101.86-43.56c1.96-4.94-.14-9.48 2.91-14.68 9.62-16.41 30.48-5.44 30.04 11.54l79.73 25.58 3.02-1.2 33.46-27.67.89-1.97c-7.51-23.69 28.69-30.86 28.78-6.06zm109.06 30.49-2.81-11.27-1.4-1.38-104.54-15.65-5.74 8.52 47.61 54.99c2.72-1.01 6.16-3.4 9.11-3.45 3.99-.07 7.61 3.94 11.56 2.14l46.21-33.91zm-134.3-21.91c-.86-.51-1.84-.18-2.63.3l-33.33 28.7c4.11 2.26 29.17 10.93 31.51 9.32l9.76-33.86c-2.5-.16-4.96-4.26-5.3-4.46zm-103.44 65.42c5.86-.33 10 .96 14.66 4.36l46.31-38.93-79.67-25.95c-1.31 2.79-6.71 6.34-6.32 9.07l25.02 51.46zm168.41-4.48-.89-3.27-44.9-52.31c-3.47-2.25-7.59.58-11.53.14-.64 5.31-10.93 32.26-8.96 35.12zm-208.54-47.98-9.12-5.37-98.82 42.96c-4.11 1.77-.53 7.74-.79 11.38l81.93 16.53 26.79-65.5zm38 54.32-24.84-52.23-1.52-1.12-8.09.87-27.47 63.73 54.11.98c1.38-4.58 2.76-10.39 7.81-12.23m351.92-6.2-82.26-40.44-3.09-.46-5.32 4.37 27.55 64.96 62.09-18.17 1.95-1.69zm-103.62-36.17c-2.51-.53-4.54-2.88-7.09-1.23-5.2 4.85-46.6 32.26-47.45 35.09-.52 1.72 3.44 6.88 1.06 13.02-.69 1.77-3.64 3.64-2.57 5.79l26.42 24.65 12.82-4.89zm-14.59 75.66 6.48 2.75 45.13-13.33-27.4-64.13c-2.68.83-7.09-.05-8.48 2.39l-15.72 72.32zm-147.58-11.99 13.81-45.73c-.17-1.15-3.89-2.48-5.1-2.98-4.54-1.87-22.75-8-26.87-8.38-1.87-.18-3.07.5-4.4 1.68l-44.73 38.54 3.22 9.62zm82.43-24.73-65.39-20.81-14.06 45.1c.5 1.7 11.87 2.85 14.42 3.22 10.54 1.53 21.29 2.16 31.85 3.48l32.38-20.48zm-234.18 16.54-81.09-16.38-9.36 13.13 48.39 72.72c3.32-3.02 13.98-.77 15.68-2.81zm-139.06 52.63 27.54-55.37-5.77-6.37-84.49 37.47.41 8.78zm513.36 8.32c3.93-.64 8.92 2.95 11.38-.84l38.12-61-4.28-6.11-63.81 18.19c-2.02 2.81 16.57 43.56 18.58 49.75zm-114.66-58.5c-1.21-1.12-1.73-3.51-3.7-4.17-4.62 1.97-10.04 3.03-14.88.98-1.78-.75-4.58-3.88-6.13-3.74-1.67.15-25.28 15.85-28.15 18.09-.75.59-1.71-.02-1.17 2.11l77.79 9.25c-7.43-7.99-15.79-15.11-23.76-22.53zm189.98-6.83-9.67 8.46 16.62 65.82c16.13-.25 32.46-.02 48.68-.44 2.19-.06 4.22-.95 6.41-1 6.1-.16 38.43 1.25 40.81-1.79.52-2.53 2.44-5.81.44-7.88l-103.27-63.17zm-541.5 2.71-17.89.72-26.92 54.67 89.31 23.88 3.44-6.25zm67.99 70.91c.22.37 3.47 1.87 4.11 2.86l80.78-62.2c-2.99-11.18-6.9-7.45-16.08-8.06-11.7-.78-22.56-.75-34.31-.87-2.95-.03-5.76-2.01-8.55.18l-25.26 62.22c-.51 1.58-1.55 4.42-.69 5.88zm414.86 2.81c16.7-.77 34.75.31 51.29-.74 1.82-.12 10.57-1.11 11.12-1.88l-16.22-66.25c-3.87-.72-7.52-.14-10.71-2.98l-40.12 62.44 4.63 9.4zm-250.41-25.06 10.02-35.94-63.46-8.25-1.75 7.21 42.86 39.12c1.28 1.48 11.92-1.64 12.32-2.14zm-14.71 15.86c-1.11-4.24 2.95-9.25 1.09-12.44l-43.9-39.19-10.41 4.44 1.39 54.29zm71.41-46.18-43.57-5.14-10.65 36.59 3.98 2.66 2.02-.3 48.21-33.8zm-213 66.64 86.14-12.47-.86-55.65c-2.21-1.04-5.15-3.78-7.47-2.73l-79.49 62.2 1.68 8.66zm321.36-58.31c1.99 4.55-.85 10.48 3.37 13.75l54.73 29.63c2.78.39 4.96-5.15 8.18-6.33l-19.03-48.65-4.87-.21-42.39 11.81zm-104.92-7.23-51.2 34.97 1.58 9.61 1.42 1.36c23.42 6.62 46.3 15.52 69.77 21.9 4.5 1.22 10.3 4.25 14.36 1.4l47.55-45.04c-1.78-4.6-4.17-8.39-3.69-13.62l-1.41-1.36-70.24-9.4c-2.61.08-5.61-.4-8.13.18zm-402.98 21.25c-1.4.33-4.54 6.32-2.47 7.76l45.47 43.54 16.85-31.34.33-3.49-60.19-16.46zm527.49 47.84c1.07.68 4.09.05 5.48-.26 5.29-1.19 25.63-8.66 30.5-11.16 3.84-1.97 3.82-3.35.31-5.87-14.51-10.42-36.37-17.81-51.5-28.13-3.15-1.67-5.74-.65-7.66 2.08l-.06 1.82 22.93 41.51zm-37.19-42.43-3.3.85-47.61 44.05 31.14 9.69c4.3-1.53 6.82-5.13 12.16-5.75zm35.13 44.36-.65-3.36c-4.32-5.07-20-39.03-24.01-39.92l-7.64.83-7.97 47.16 8.34 6.44 31.92-11.15zm-506.6 49.08 22.17-44.65-47.44-46.87-5.77 3.6 15.38 81.94 1.82 2.81 13.83 3.17zm-17.61-1.87-15.56-82.87c-1.82-3.89-8.31-3.05-12.05-4.01l-60.16 124.26 6.42 5.8 63.24-16.4 1.41-1.37c-1.25-11.44 4.5-23.69 16.71-25.42zm153.77-43.51c-1.51-3.91.75-10.18-2.97-12.16l-87.26-23.9-2.22 1.53-17.5 34.93 34.52 34.6 75.44-35.01zm174.91-27.49-53.62 8.5c-2.27 3.86.04 8.23.13 12.09.36 14.37-1.67 32.69-.06 46.34.21 1.75.52 3.34 1.82 4.64l11 .28 44.85-64.02.28-2.46-4.41-5.38zm102.98 24.8-79.59-24.61-6.36 5.75 26.35 64.12 13.25-.34c12.08-12.05 25.26-22.92 37.56-34.71 1.34-1.28 9.76-9.1 8.77-10.2zm225.98-17.59 7.84 35.2c6.89 1.03 10.58 2.91 15.75 7.37l72.16-38.97 1.56-3.13c-.16-2.17-2.48-2.69-4.21-2.78-20.41-1.02-44.14 1.78-64.81 2.34-9.41.25-18.88-.27-28.28-.03zm-322.04.26-46.2 65.41 6.08 9.81 64.35-1.49c3.71-.59 10.21-8.89 8.41-12.91l-24.34-59.92c-1.03-3.1-6.26-2.58-8.3-.9m-62.54 65.23-1.56-64.19-86.08 12.67.05 4.85c28.02 16.2 56.82 32.28 85.38 47.6.75-.17 1.67-.38 2.21-.93m383.51-22.12c.82-4.19 6.64-4.77 6.69-8.61l-8.34-33.43-62.05.57-.08 5.93 63.78 35.55zm-90.63-38.74-36.96 13.51 15.69 29.99 1.92-.58c2.32-6.54 21.8-32.95 21.06-37.61-.24-1.53-2.08-3.31-1.71-5.31m198.09 6.62c-3.22-1.27-5.71-3.06-7.26-6.22l-3.71 1-70.27 37.61v14.53l52.62 27.91 28.6-74.84zm-168.44 69.29 57.78-24.17 1.55-2.24-.44-7.41-64-37.46c-2.57 2.09-7.91 3.36-7.9 6.89l13.02 64.39zm179.6-69.41-9.25 2.48-28.56 73.73 66 36.79 7.61-8.47-35.79-104.53zm-204.87 1.93-22.82 37.38 24.42 41.18c3.63-1.51 21.99-7.46 22.4-10.6l-13.71-64.66-1.35-1.42-8.93-1.88zm-46.26 5.59-30.37 11.43-.78 1.08c1.92 6.96-4.08 7.72.79 13.76 5.75 7.12 24.39 26.01 31.48 31.48.7.54 1.11 1.51 2.24 1.31l16.22-27.29c-2.26-4.41-15.17-30.28-17.51-31.51-.78-.41-1.24-.35-2.06-.27zm-54.46 10.08c-7.31.34-28.91-10.43-34.25-8.93-1.1.31-6.08 4.51-7.4 5.64-8.36 7.14-16.71 16.52-24.98 24.1-2.4 2.2-17.03 13.22-16.61 15.59l3.66 2.97 79.07-31.9zm-204.8 50.73 3.64-10.51-83.82-47.53c-10.11 3.67-7.6 9.23-5.53 17.66 4.38 17.82 10.67 35.35 15.44 53.08zm-184.1-22.95.84 3.24 33.42 33.31c2.68 1.2 10.2-3.53 14.16-1.54l31.06-64.95c-1.48-2.37-4.3-5-7.28-3.97zm-38.37-32.4-23.34 42.5 7.65 11.06 48.45-21.67-32.75-31.89zm131.74 4.71-12.38.78-29.69 62.97c4.25 2.25 7.15 6.34 7.95 11.11 15.04-4.31 33.69-4.88 48.35-9.52 1.22-.39 3.01-.82 3.4-2.2l-17.62-63.14zm303.89 15.65c-4.15-.4-5.49-3.75-7.96-6.39l-77.61 31.44c-3.09 2.13.06 6.6-.39 9.95l65.97 26.01 20-61zm1.98 1-18.63 59.65c.04 1.92 1.95 2.33 3.34 3.06 2.96 1.56 20 8.85 22.09 8.51 2.37-.38 6.09-7.8 13.88-7.51 2.57.1 6.05 2.66 7.9 1.49 3.53-8.85 13.08-18.95 16.16-27.41.38-1.05.81-1.98.54-3.13l-36.6-36.62-8.7 1.96zm66.55 8.22-1.92.58c-1.62 5.1-15.16 21.97-14.77 25.77.09.9.52 1.29.9 1.93.65 1.1 16.76 17.2 18.08 18.07.59.39 1.06.91 1.86.84l18.07-7.9-22.23-39.29zm114.72 8.47-6.58-3.71-56.75 24.84 12.64 66.56c3.47-.73 8.74 2.66 10.91-.44l39.77-87.25zm-550.04 39.64 2.43-7.36-35.46-35.05-3.99.27c-5.04 3.78-46.25 19.01-47.1 21.45-1.33 3.81 1.48 5.57 4.86 6.03l79.27 14.65zm568.48-41.44c-1.47.37-3.56 2.62-5.36 3.06l-.75 1.65 25.96 73.16 2.13 1.57 10.05-.16 21.82-51.07-49.25-27.67c-1.48-.85-2.95-.95-4.6-.53zm10.28 95.04c.71-7.08 4.01-10.45 8.06-15.67l-26.24-73.77-1.76-1.94c-6.45-1.39-7.01 1.34-9.44 6-5.99 11.47-10.57 23.99-16.14 35.71-6.35 13.35-15.58 28.8-20.78 42.17-2.09 5.38.7 10.43 5.73 12.34l60.57-4.83zm-326.79-79.5-67 1.82c-1.75 3.86-2.21 6.59-4.87 10.13-1 1.34-3.86 1.51-3.03 4.04l18.87 34.05c3.71.92 7.36-.98 11.64 1.41l46.74-42.16c-.98-3.35-3.32-5.28-2.35-9.28zm-167.57 18.59 14.89 60.42c1.58 2.63 7.19 1.66 10.03 1.06 16.65-22.34 34.83-44.09 49.88-67.43-3.01-2.52-3.05-7.94-7.67-7.11zm194.57-12.9c-.31 3.39-5.86 4.72-6.52 7.01-.77 2.7 2.42 7.83 2.87 10.7l35.98 88.09c1.39 2.22 4.44 1.61 6.72 1.31l28.32-80.78-67.38-26.33zm137.5 1.78c-2.09.63-14.27 24.18-17.09 27.5-.56 1.76.53 5.07 2.31 5.65 1.42.47 2.68.06 4.03-.31 4.51-1.22 22.46-9.48 26.88-12.02.98-.57 2.15-.85 2.68-2.02.37-1.23-.22-1.8-.83-2.71-1.02-1.53-13.75-14.25-15.28-15.28-.91-.61-1.46-1.19-2.7-.82zm67.95 1.79c-1.15-1.15-20.19 7.51-23.18 8.85l33.33 56.27 2.82.61zm-215.02 4.79-12.35-2.9-4.6 2.77-42.67 38.84 1.6 7.71c23.09 14.94 46.4 29.74 69.93 43.97 3 1.82 21.33 13.16 22.81 12.94 1.11-.16 6.06-3.52 4.91-5.38zm-269.47 13.86c-27.8-5.77-55.92-11.41-84.05-14.83-.55 5.59-4.72 8.97-7.54 13.31l40.34 50.53 2.26-.56 49.18-37.87c2.1-2.81-.61-7.16-.19-10.59zm174.97-11.04-13.26-1.74-50.23 66.82c2.09 2.88 4.35 5.3 8.15 3.75 21.21-8.8 47.91-12.92 68.49-22.28 5.25-2.39 2.55-7.09 6.36-11.31l-19.5-35.24zm514.1 44.15c-.8-3.33 2.13-9.31.11-11.49l-63.49-34.71-2.49 2.1-19.3 47.47c.04 2.15 4.73 8.55 7.03 8.76l78.15-12.13zm-882.38-27.55c0 3.25-1.17 7.62 1.23 10.08l60.24 34.98 18.09-47.51c-.16-1.68-6.78-5.63-8.85-7.86-2.2-2.38-2.99-6.6-6.42-6.55l-64.29 16.85zm679.33 39.07c1.59 1.43 2.53 4.38 5.42 5.21l.98-3.73-32.94-54.17-18.07 6.99 34.31 35.13c2.45 4.5 6.64 7.26 10.3 10.56zm-404.55-52-51.51 8.79-3.77 8.19 69.77 43.96 1.21-3.91zm-176.1 7.39-16.86 4.46-17.13 46.75 2.48 3.12 40.46 22.17c1.74-.16 25-18.53 27.9-21.13 1.15-1.03 4.19-3.43 4.06-4.9-10.78-13.14-20.53-27.9-31.38-40.87-1.6-1.91-7.73-9.76-9.53-9.59zm583.75 54.47c1.11-5.38-2.26-5.55-5.12-8.31-15.17-14.64-28.5-31.5-44.86-45.01l-3.73.04-32.03 14.39.15 10.29 85.58 28.59zm-140.72-49.01-26.74 77.48c-.11 8.59 6.42.77 9.11-2.06 15.98-16.76 31.22-34.28 47.11-51.13.41-1.65-2.05-4.24-2.47-6.5-.47-2.52.52-6.57-1.11-8.15-.86-.84-19.94-8.62-22.24-9.24-1.22-.33-2.38-.75-3.66-.4m-336.24 9.21c-4.22.82-6.93-4.47-10.14-3.26l-50.84 39.95 41.28 53.89 7.7-1.39 12.01-89.2zm79.59 56.38c-1.15-5.59-1.78-10.3 1.69-15.21l-66.11-42.95c-2.03-2.14-12.32 1.92-13.26 3.22l-12.03 88.27c2.16.68 4.46 1.22 6.46 2.35 2.6 1.47 5.15 5.4 7.38 4.79l75.87-40.46zm-286.45-53.47-7.62 6.39 31.29 94.66c1.02 2.32 9.41 2.04 11.25 1.42 3.42-1.17 24.29-59.2 27.38-66.83l-62.29-35.64zm681.84 38.87-83.93-28.68c-2.47-.36-4.31 2.37-5.64 4.23l11.97 47.45 77.64-16.73-.03-6.26zm-91.64-24.11c-5.34.17-9.56 1.4-14.45-1.79l-1.69.69-53.16 57.81c2.75 2.81 3.7 7.32 8.6 6.09l71.51-15.64-10.81-47.15zm214.06 14.77c.84 6.83-1.56 11.04-5.56 16.11l28.19 79.21c1.41 1.75 8.81-.75 11.89.82l54.24-99.25-9.63-8.98-79.13 12.08zm-416.16-9.94c-1.01-.84-2.11-1.26-3.41-.8l-73.05 25.11.92 6.75 52.95 16.67 24.32-44.25c.17-.83-1.14-2.98-1.74-3.47zm109.57 54.35-91.96-55.46c-2.36 1.39-4.37 3.49-3.02 6.38l26.59 63.77c6-1.16 12.15-2.18 14.84 4.58l46.38-6.54c7.54-1.42 3.99-7.53 7.17-12.73m-97.39-49.86c-2.7-.06-7.62-.99-9.59.76l-21.73 42.98 58.32 22.76zm-287.76 37.69 64.47 35.16c3.09.78 5.53-5.07 7.5-6.95l-41.45-53.61-29.78 22.21-.75 3.19zm662.86-25.68-63.19 4.63-3.06 9.61 49.22 34.7 21.42-38.89-4.39-10.06zm-732.76 70.55c.88.7 1.29 2.71 2.62 3.32l60.66-49.45-41.6-22.63-25.81 63.6-.04 2.83c1.44.7 2.89 1.31 4.16 2.33zm739.92-60.34-21.45 40.58 58.34 40.81c1.79 1.74 5.94.72 5.69-1.99l-27.19-76.51c-2.39-5.22-10.41-.22-15.4-2.89zm-99.77.91-77.56 16.64 16.56 59.68c5.46-2.02 10.04 1.92 14.34.39l50.98-68.5-4.31-8.2zm-318.46 22.09-51.67-16.51c-3.27-.43-4.31 3.89-6.41 5.84l28.14 52.35c3.1-.32 7.31 1.01 9.62-1.37l20.33-40.31zm341.52-15.58c-1.23.3-4.35 2.41-4.37 3.9l13.09 81.38c1.28 3.42 10.35-.2 13.27 3.32l29.05-54.81c-14.11-10.17-28.39-21.85-43.3-30.85-2.26-1.36-4.88-3.65-7.74-2.95zm-413.03 4.65-5.4-3.5-76.73 41.91 1.92 9.39 64.69 8.11c2.12-6.52 17.11-53.26 15.52-55.91m413.98 89.41c.49-.29 6.84-7.97 5.79-9.45l-12.32-78.51c-.94-5.5-6.29-1.74-10.29-4.23l-53.16 70.63c3.62 4.81 5.69 10 5.34 16.22 15.98.53 31.79 3.47 47.71 4.61 2.21.16 16.2 1.16 16.93.73m-426.71-33.17 43.93 5.6 7.77-8.06-28.31-52.9-8.5.91-14.89 54.46zm-171.63-51.66-61.38 48.01 1.87 7.43 127.38-12.52c1-1.07 2.35-5.36.96-6.47l-68.82-36.44zm493.77 1.82-74.28 14.87c-2.18 1.17-1.86 5.18-2.38 7.56l87.26 42.33 5.98-6.81zm-175.98 27.79-58.55-22.21-21.77 41.8 5.59 7.01 72.77-19.02c2.14-.57 2.7-6.41 1.96-7.57zm19.62 2.69c0 3.79.43 6.75-1.5 10.14l24.14 20.4 31.93-31.05c-3.16-1.94-2.91-7.1-6.91-7.03l-47.67 7.54zm312.22-5.43c-2.62 7.64-28.89 50.67-27.81 54.72l4.45 6.71 81.64-10.13 3.35-10.28-58.8-40.97-2.84-.05zm-205.62 98.75 11.88.6 47-42.56c-2.55-4.16-1.81-9.24-.88-13.8-.24-1.28-1.86-1.95-2.86-2.59-7.22-4.69-19.05-9.6-27.16-13.58-15.8-7.75-34.69-17.94-50.64-24.36-1.81-.73-3.59-1.59-5.58-1.76-1.63 4.25-6.58 4-5.99 8.62l34.24 89.44zm-50.4-91.36c-2.95 2.95-6.42 5.39-9.5 8.16-4.5 4.06-18.02 16.56-20.86 20.81-.6.9-1.2 1.47-.82 2.7l74.32 63.41c1.76-1.34 4.83-2.13 4.21-4.72l-33.37-88.02-2.13-1.57-11.85-.76zm-77.7 62.65 8.56-47.52c1.11-5.68-4.69-5.76-6.56-10.23l-72.99 19.19-.91 7.98 63.42 34.27zm11.47-50.56c-2.46 2.42-7.51 42.32-9.27 48.63.07 2.22 3.91 3.28 5.85 3.92l33.81-33.77-22.3-20.4c-1.09-.74-7.69 1.22-8.1 1.62zm-257.91.03-2.8-.84c-41.92 4.19-84 7.36-125.73 13.07-1.36.87-2.78 7.08-.91 8.38l74.17 45.39c5.55-3.58 10.82-3.67 16.58-.5l41.93-55.8.53-2.75-3.78-6.94zm98.42 7.18-64.82-8.34c-.74 6.86-6.53 9.47-11.04 13.57l35.25 89.96c3.26-.05 8.63 1.61 10.25-1.95 11.7-30.54 21.63-61.72 30.35-93.25zm1.94 1.02c-8.79 31.17-18.33 62.23-30.49 92.26-.78 2.11.51 4.01 2.58 4.48 1.23.28 9.22-8.27 10.7-9.8 17.83-18.4 36.68-39.12 53.72-58.32 1.94-2.19 11.06-12.05 11.38-13.65s-.65-9.99-3.3-10.19c-5.37-.74-42.89-6.24-44.59-4.77zm-44.61 96.12-35.22-91.04c-2.1-2.86-9.84.35-13.37-3.33l-1.34.43-43.15 57.06c2.9 3.64 4.04 7.4 4.66 11.97l79.84 30.38 8.57-5.47zm204.94-39.03c.87.87 10.56 2.94 12.75 3.46 23.76 5.55 48.08 10.48 72.06 14.99 3.87.73 13.37 3.09 16.44 3.09 1.54 0 2.25-.09 3.19-1.43l-73.75-64.19c-1.41-.28-2.98 1.33-4.05 2.15-10.3 7.94-19.81 21.64-30.12 30.13-1.42 2.27 1.29 3.6 1.91 5.51.56 1.74.47 5.19 1.57 6.3zm-24.34-9.89-61.76-33.28c-1.9-.47-8.14 5.5-10.27 6.96l3.55 55.86 66.07-20.5 1.38-1.4 1.02-7.63zm-74.03-26.94c-4.65 1.99-9.28-5-12.53-2.85l-74.1 79.72c-1.44 1.25 2.42 6.4 3.28 6.95 3.82 2.43 76.35-24.63 86.64-26.35l-3.29-57.46zm347.36 98.98c5.39.6 6.65 5.22 10.41 7.38 41.89-29.32 83.21-59.62 122.72-91.99l-4.01-7.88-80.45 8.46-1.06.79c-1.25 13.26-11.84 16.11-23.48 14.02l-24.12 69.23zm17.54-86.94-61.64-5.62c-4.32.53-5.55 7.68-10.67 9l38.16 83.53 14.09-1.89 1.76-1.94 23.46-68.3c-3.25-4.66-6.1-8.7-5.15-14.78zm-74.3 4.83c-3.47-.76-6.45-.37-10-1.58-3.17-1.08-6.83-4.83-9.22-3.75l-45.91 41.26c-1.41 3.13 5.11 9.62 3.41 14.19l96.56 39.35c2.36-2.07 4.29-5.07 2.91-8.23l-37.75-81.25zm-284.01 41.57c-.18 2.86-.24 5.81-.1 8.68.86 17.53 3.94 40.59 6.72 58.08.86 5.39 1.93 5.71 7.44 6.11l56.91-85.49-6.55-8.67-64.43 21.28zm194.37 1.75-102.53-21.13-6.76 7.72 14.06 42.41c4.68 2.62 8.94 4.1 13.23 7.98l81.44-30.41zm-111.26-12.84-9.62-.2-56.5 84.36-.02 1.78 5.18 5.16 68.36-33.06c.33-2.18-.08-4.18.57-6.39.91-3.1 6.13-6.74 6.15-7.79l-14.1-43.88zm-77.75 83.12-8.85-70.21-84.48 27.36c.09 3.55-1.47 8.6 1.75 10.95l80.82 38.33c3.27-2.6 6.29-6.1 10.76-6.44zm189.9-61.94-81.81 30.44c-1.05.82-.83 4.77-.42 5.97 1.11 3.25 56.87 21.36 64.07 24.6l23.61-51.48zm121.22 52.61c-.82-4.68 3.47-11.65-1.99-13.93l-91.35-37.42-6.11 6.15 26.56 63.72c8.48-.65 13.45.84 19.61 6.46l53.28-24.99zm-101.79-43.35-12.47 1.81-22.59 50.39 56.74 18.97 5.71-9.23-27.39-61.93zm-124.28 29.74-65.49 32.77c-2.6 1.68-2.3 5.29-1.45 7.88l109.75 47.67 4.52-5.41-34.67-76.46-12.65-6.44zm62.16 82.14 23.81-57.27-64.45-24.57-5.37 4.37c-.68 1.16.13 3.07.47 4.29 5.08 18.21 20.74 47.04 29.16 65.28 1.16 2.51 2.15 5.21 2.72 7.92h13.66zm82.42-38.63-55.78-17.65-25.19 58.25 6.12 4.24 76.83-35.75-1.97-9.09z"/></svg>