<svg xmlns="http://www.w3.org/2000/svg" width="487" height="269" fill="none" viewBox="0 0 487 269"><mask id="b" width="487" height="269" x="0" y="0" maskUnits="userSpaceOnUse" style="mask-type:alpha"><rect width="487" height="269" fill="url(#a)" rx="24"/></mask><g mask="url(#b)"><path fill="#fff" fill-opacity=".2" d="m484.385 33.734 86.172 12.908c2.382-3.813 2.85-7.781 7.029-10.419 12.702-8.044 25.691 6.04 20.863 19.153l67.354 33.877 1.018-.23c6.24-15.497 28.778-10.131 28.154 6.006-.082 2.202-2.134 4.75-1.215 6.475.706 1.331 13.991 9.408 16.455 10.977 22.423 14.239 45.66 27.254 68.116 41.436l.945.033c.747-3.131 5.263-5.349 8.235-5.85 15.781-2.654 23.269 19.029 9.467 26.58l.025 2.309 29.205 84.935c21.094-.304 21.365 28.117-1.051 26.465l-44.74 81.607c-.222 1.413 4.623 4.856 5.657 6.614 7.891 13.467-11.511 26.433-21.561 15.505-32.474 26.696-66.475 51.428-100.771 75.699l-.608.789c5.148 17.584-17.932 27.32-27.268 11.676l-44.355 20.204-.763 1.512c2.389 15.603-11.832 19.219-22.276 10.402l-62.755 29.991c5.386 18.602-23.179 25.323-24.468 5.99-.197-2.975 1.872-5.62-1.232-7.091l-86.739-38.774c-1.781-.28-3.218 3.418-4.392 4.453-6.438 5.645-18.861 1.126-20.092-7.304-.288-1.956.607-5.612-.821-6.787l-67.698-31.987c-10.855 17.164-31.899 6.129-26.677-12.752l-3.21-2.17-63.511-23.335c-5.337 10.049-21.668 5.489-19.862-6.524.222-1.462 2.078-3.689 1.388-4.88l-59.955-37.081-1.766-.206c-6.338 7.255-19.098 7.674-24.271-1.084-3.982-6.754-3.514-13.311 1.643-19.219.821-.937 2.964-1.832 3.103-2.399.517-2.071-1.379-7.576-2.085-9.95-6.922-23.147-17.284-45.331-23.188-68.847-1.863-3.607-10.665-2.605-13.153-9.663-3.473-9.876 6.051-17.821 15.543-14.469l49.158-100.398c.73-2.991-3.646-5.16-5.148-8.611-8.605-19.777 19.418-30.771 28.278-11.495l68.461-29.728.649-.83c-8.104-20.204 15.699-33.063 28.245-15.85l83.635-35.79c1.609-4.06-.115-7.79 2.389-12.062 7.899-13.484 25.027-4.47 24.665 9.481l65.465 21.018 2.48-.986 27.473-22.735.731-1.618c-6.167-19.465 23.556-25.357 23.63-4.98zm89.547 25.052-2.307-9.26-1.15-1.134-85.835-12.859-4.713 7 39.091 45.183c2.234-.83 5.058-2.793 7.48-2.834 3.276-.058 6.249 3.237 9.492 1.758l37.942-27.862zM463.661 40.783c-.706-.419-1.511-.148-2.159.247L434.135 64.61c3.375 1.857 23.951 8.981 25.872 7.658l8.014-27.821c-2.053-.132-4.072-3.5-4.352-3.665zm-84.932 53.753c4.811-.271 8.211.789 12.037 3.582l38.024-31.987-65.415-21.321c-1.076 2.292-5.51 5.209-5.189 7.452l20.543 42.282zm138.278-3.68-.731-2.688-36.867-42.98c-2.849-1.85-6.231.476-9.467.114-.525 4.363-8.974 26.507-7.356 28.857zM345.779 51.431l-7.488-4.412-81.139 35.298c-3.375 1.454-.435 6.36-.649 9.35l67.271 13.582 21.997-53.818zm31.201 44.632L356.584 53.15l-1.248-.92-6.642.715-22.555 52.364 44.428.805c1.133-3.763 2.267-8.537 6.413-10.049m288.954-5.094-67.542-33.228-2.537-.378-4.368 3.591 22.62 53.375 50.981-14.93 1.601-1.388zm-85.08-29.72c-2.061-.435-3.728-2.366-5.822-1.01-4.269 3.985-38.262 26.507-38.96 28.832-.427 1.413 2.825 5.653.87 10.698-.566 1.454-2.988 2.991-2.11 4.757l21.693 20.254 10.526-4.018zm-11.98 62.167 5.321 2.26 37.055-10.953-22.498-52.693c-2.2.682-5.821-.04-6.962 1.964l-12.908 59.422zm-121.175-9.851 11.34-37.575c-.14-.945-3.194-2.037-4.188-2.448-3.728-1.537-18.679-6.574-22.062-6.886-1.536-.148-2.521.411-3.613 1.38l-36.727 31.667 2.644 7.905zm67.682-20.32-53.69-17.099-11.545 37.057c.411 1.397 9.746 2.342 11.84 2.646 8.654 1.257 17.481 1.775 26.152 2.859l26.586-16.827zm-192.28 13.59L256.52 93.378l-7.686 10.788 39.732 59.751c2.726-2.482 11.479-.633 12.875-2.309zM208.922 150.08l22.612-45.495-4.737-5.234-69.373 30.787.336 7.215zm421.508 6.836c3.227-.526 7.324 2.424 9.344-.69l31.3-50.121-3.514-5.02-52.393 14.946c-1.659 2.308 13.605 35.791 15.255 40.877zm-94.144-48.067c-.994-.92-1.421-2.884-3.038-3.426-3.794 1.619-8.244 2.49-12.218.805-1.462-.616-3.761-3.188-5.033-3.073-1.371.123-20.757 13.023-23.114 14.864-.615.485-1.404-.016-.96 1.734l63.871 7.6c-6.1-6.565-12.964-12.415-19.508-18.512zm155.988-5.612-7.94 6.952 13.647 54.081c13.244-.205 26.652-.016 39.97-.362 1.798-.049 3.465-.78 5.263-.821 5.008-.132 31.554 1.027 33.508-1.471.427-2.079 2.003-4.774.361-6.475l-84.792-51.904zm-444.614 2.227-14.689.592-22.103 44.92 73.33 19.621 2.825-5.136zm55.825 58.264c.181.304 2.849 1.536 3.375 2.35l66.327-51.107c-2.455-9.186-5.666-6.122-13.203-6.623-9.607-.641-18.524-.616-28.172-.715-2.422-.024-4.729-1.651-7.02.148l-20.74 51.124c-.419 1.298-1.273 3.631-.567 4.831zm340.633 2.309c13.712-.633 28.532.254 42.113-.608 1.494-.099 8.679-.913 9.13-1.545l-13.318-54.435c-3.177-.591-6.174-.115-8.793-2.448l-32.942 51.304 3.802 7.723zm-205.606-20.591 8.227-29.53-52.106-6.779-1.437 5.924 35.192 32.143c1.051 1.216 9.787-1.347 10.115-1.758zm-12.078 13.031c-.912-3.484 2.422-7.6.894-10.221l-36.045-32.201-8.547 3.648 1.141 44.608zm58.633-37.944-35.775-4.223-8.744 30.064 3.268 2.186 1.658-.247 39.584-27.772zm-174.89 54.755 70.728-10.246-.706-45.725c-1.815-.854-4.229-3.106-6.134-2.243l-65.267 51.107 1.379 7.116zm263.862-47.91c1.634 3.738-.698 8.611 2.767 11.297l44.937 24.346c2.283.321 4.073-4.231 6.717-5.201l-15.625-39.974-3.999-.172-34.805 9.704zm-86.148-5.941-42.039 28.733 1.297 7.896 1.166 1.118c19.23 5.439 38.016 12.752 57.287 17.994 3.695 1.003 8.457 3.492 11.791 1.151l39.042-37.008c-1.462-3.779-3.424-6.894-3.03-11.191l-1.158-1.117-57.672-7.724c-2.143.066-4.606-.328-6.676.148zm-330.878 17.46c-1.149.271-3.728 5.193-2.028 6.376l37.334 35.775 13.836-25.75.271-2.868-49.421-13.525zm433.111 39.308c.878.559 3.358.041 4.499-.213 4.344-.978 21.044-7.116 25.043-9.17 3.153-1.619 3.137-2.753.255-4.823-11.914-8.562-29.863-14.634-42.286-23.113-2.586-1.373-4.713-.534-6.289 1.709l-.05 1.495 18.828 34.107zm-30.536-34.863-2.71.699-39.091 36.194 25.568 7.962c3.531-1.258 5.6-4.215 9.984-4.725zm28.844 36.449-.533-2.761c-3.547-4.165-16.422-32.069-19.714-32.8l-6.274.682-6.543 38.749 6.847 5.292 26.209-9.162zm-415.958 40.327 18.203-36.687-38.952-38.511-4.737 2.958 12.628 67.326 1.494 2.309 11.356 2.605zm-14.459-1.537-12.776-68.09c-1.495-3.196-6.823-2.506-9.894-3.295L85.949 249.295l5.271 4.766 51.925-13.476 1.158-1.125c-1.027-9.4 3.695-19.465 13.72-20.887zm126.257-35.75c-1.24-3.212.616-8.364-2.439-9.991l-71.647-19.638-1.823 1.257-14.369 28.701 28.344 28.429 61.942-28.766zm143.615-22.587-44.026 6.984c-1.864 3.172.032 6.762.106 9.934.296 11.807-1.371 26.86-.049 38.075.172 1.438.427 2.745 1.494 3.813l9.032.23 36.826-52.603.23-2.021-3.621-4.42zm84.555 20.377-65.35-20.221-5.222 4.725 21.635 52.684 10.879-.279c9.919-9.901 20.741-18.833 30.84-28.52 1.1-1.052 8.014-7.477 7.201-8.381zm185.547-14.453 6.437 28.922c5.657.847 8.687 2.391 12.932 6.056l59.249-32.02 1.281-2.572c-.131-1.783-2.036-2.21-3.457-2.284-16.758-.838-36.242 1.463-53.214 1.923-7.726.205-15.502-.222-23.22-.025zm-264.42.214-37.934 53.744 4.992 8.061 52.836-1.225c3.047-.484 8.384-7.304 6.906-10.607l-19.985-49.234c-.846-2.547-5.14-2.12-6.815-.739m-51.351 53.596-1.28-52.742-70.679 10.411.041 3.985c23.007 13.31 46.654 26.523 70.104 39.11.616-.139 1.371-.312 1.814-.764m314.892-18.175c.674-3.443 5.452-3.919 5.493-7.074l-6.848-27.468-50.947.468-.066 4.873 52.368 29.209zm-74.414-31.831-30.347 11.101 12.883 24.641 1.576-.476c1.905-5.374 17.9-27.074 17.292-30.903-.197-1.257-1.708-2.719-1.404-4.363m162.647 5.44c-2.644-1.044-4.688-2.515-5.961-5.111l-3.046.822-57.697 30.902v11.939l43.205 22.932 23.483-61.493zm-138.302 56.932 47.442-19.859 1.272-1.841-.361-6.088-52.549-30.779c-2.11 1.717-6.495 2.76-6.486 5.661l10.69 52.906zm147.466-57.031-7.595 2.038-23.45 60.58 54.191 30.229 6.248-6.959-29.386-85.888zm-168.215 1.586-18.737 30.713 20.051 33.836c2.98-1.241 18.055-6.129 18.392-8.709l-11.257-53.129-1.108-1.166-7.333-1.545zm-37.983 4.593-24.936 9.391-.64.888c1.576 5.719-3.35 6.343.648 11.306 4.721 5.85 20.026 21.371 25.848 25.866.575.443.911 1.24 1.839 1.076l13.318-22.423c-1.856-3.624-12.456-24.88-14.377-25.89-.641-.337-1.018-.288-1.692-.222zm-44.716 8.282c-6.002.28-23.737-8.57-28.122-7.337-.903.255-4.992 3.705-6.076 4.634-6.864 5.867-13.72 13.574-20.51 19.802-1.971 1.807-13.983 10.862-13.638 12.809l3.005 2.441 64.922-26.211zm-168.157 41.683 2.989-8.636-68.823-39.053c-8.301 3.015-6.24 7.584-4.54 14.51 3.596 14.642 8.761 29.046 12.677 43.614zM224.276 212.6l.69 2.662 27.44 27.369c2.2.986 8.375-2.9 11.626-1.265l25.503-53.367c-1.215-1.947-3.531-4.108-5.977-3.262zm-31.505-26.622-19.164 34.921 6.281 9.087 39.782-17.805-26.891-26.203zm108.169 3.87-10.165.641-24.378 51.74c3.49 1.848 5.871 5.209 6.528 9.128 12.349-3.541 27.662-4.009 39.699-7.822 1.002-.32 2.471-.674 2.792-1.808l-14.468-51.879zm249.517 12.859c-3.407-.329-4.507-3.081-6.535-5.25l-63.724 25.833c-2.537 1.75.049 5.422-.321 8.175l54.167 21.371 16.422-50.121zm1.626.822-15.297 49.011c.033 1.578 1.602 1.915 2.743 2.515 2.43 1.282 16.421 7.271 18.137 6.992 1.946-.312 5.001-6.409 11.397-6.171 2.11.083 4.968 2.186 6.487 1.225 2.898-7.272 10.739-15.571 13.268-22.522.312-.863.665-1.627.444-2.572l-30.052-30.089-7.143 1.611zm54.643 6.754-1.577.476c-1.33 4.191-12.447 18.052-12.127 21.174.074.74.427 1.06.739 1.586.534.904 13.761 14.133 14.845 14.847.485.321.871.748 1.527.691l14.837-6.491-18.252-32.283zm94.194 6.959-5.403-3.048-46.596 20.41 10.379 54.689c2.849-.6 7.176 2.186 8.958-.361l32.654-71.69zm-451.626 32.571 1.995-6.048-29.115-28.799-3.276.222c-4.138 3.106-37.975 15.62-38.673 17.625-1.092 3.13 1.215 4.576 3.99 4.954l65.087 12.037zm466.767-34.05c-1.207.304-2.923 2.153-4.401 2.514l-.616 1.356 21.315 60.113 1.749 1.29 8.252-.132 17.916-41.962-40.438-22.735c-1.216-.699-2.423-.781-3.777-.436zm8.44 78.09c.583-5.817 3.293-8.586 6.618-12.875l-21.545-60.614-1.445-1.594c-5.296-1.142-5.756 1.101-7.751 4.93-4.918 9.425-8.679 19.712-13.252 29.342-5.214 10.969-12.793 23.663-17.062 34.649-1.716 4.42.575 8.57 4.705 10.139l49.732-3.968zm-268.32-65.321-55.012 1.495c-1.437 3.172-1.815 5.415-3.999 8.323-.821 1.101-3.169 1.241-2.488 3.32l15.494 27.977c3.046.756 6.043-.805 9.558 1.159l38.377-34.641c-.805-2.753-2.726-4.338-1.93-7.625zm-137.588 15.274 12.226 49.645c1.297 2.161 5.903 1.364 8.235.871 13.671-18.356 28.599-36.227 40.956-55.405-2.472-2.07-2.505-6.524-6.298-5.842zm159.757-10.599c-.254 2.785-4.811 3.878-5.353 5.76-.632 2.218 1.987 6.433 2.356 8.791l29.543 72.38c1.141 1.824 3.645 1.323 5.517 1.076l23.253-66.373-55.324-21.634zm112.899 1.462c-1.716.518-11.717 19.868-14.033 22.596-.459 1.446.436 4.166 1.897 4.642 1.166.387 2.201.05 3.309-.254 3.703-1.003 18.441-7.79 22.071-9.877.804-.468 1.765-.698 2.2-1.659.304-1.011-.181-1.479-.681-2.227-.838-1.257-11.29-11.709-12.547-12.555-.747-.501-1.198-.978-2.216-.674zm55.792 1.471c-.944-.945-16.578 6.171-19.033 7.272l27.367 46.234 2.315.502zm-176.548 3.936-10.141-2.383-3.777 2.276-35.035 31.913 1.314 6.335c18.958 12.276 38.098 24.436 57.418 36.128 2.463 1.496 17.513 10.813 18.728 10.633.912-.132 4.976-2.893 4.032-4.421zm-221.256 11.388c-22.826-4.741-45.915-9.375-69.012-12.185-.452 4.593-3.876 7.37-6.191 10.936l33.122 41.518 1.856-.46 40.381-31.116c1.724-2.309-.501-5.883-.156-8.701zm143.664-9.071-10.888-1.43-41.243 54.903c1.716 2.367 3.572 4.355 6.692 3.082 17.415-7.231 39.338-10.616 56.236-18.307 4.311-1.964 2.094-5.825 5.222-9.293l-16.011-28.955zm422.116 36.276c-.657-2.736 1.749-7.649.09-9.441l-52.13-28.519-2.044 1.725-15.847 39.004c.033 1.767 3.884 7.025 5.772 7.198l64.167-9.967zM90.514 256.033c0 2.67-.96 6.261 1.01 8.282l49.462 28.741 14.853-39.037c-.131-1.38-5.567-4.625-7.267-6.458-1.806-1.955-2.455-5.423-5.271-5.382l-52.787 13.845zm557.783 32.102c1.306 1.175 2.077 3.598 4.45 4.28l.805-3.064-27.046-44.509-14.837 5.743 28.171 28.865c2.012 3.697 5.452 5.965 8.457 8.676zM316.13 245.409l-42.294 7.222-3.095 6.729 57.286 36.12.994-3.212zm-144.592 6.072-13.843 3.664-14.065 38.413 2.036 2.563 33.221 18.216c1.428-.131 20.527-15.225 22.908-17.361.944-.847 3.44-2.819 3.333-4.026-8.851-10.797-16.856-22.925-25.765-33.582-1.314-1.569-6.347-8.019-7.825-7.879zm479.304 44.755c.912-4.42-1.855-4.56-4.204-6.828-12.455-12.029-23.4-25.882-36.833-36.983l-3.063.033-26.299 11.824.123 8.455 70.268 23.491zM535.3 255.967l-21.955 63.662c-.091 7.058 5.271.632 7.48-1.693 13.121-13.771 25.634-28.166 38.681-42.011.336-1.356-1.684-3.484-2.028-5.341-.386-2.071.427-5.398-.912-6.696-.706-.691-16.372-7.083-18.261-7.593-1.001-.271-1.954-.616-3.005-.328m-276.079 7.567c-3.465.674-5.69-3.673-8.326-2.678l-41.743 32.825 33.894 44.279 6.322-1.142 9.861-73.292zm65.35 46.325c-.945-4.593-1.462-8.463 1.387-12.497l-54.281-35.29c-1.667-1.759-10.116 1.577-10.888 2.645l-9.877 72.528c1.773.559 3.662 1.002 5.304 1.931 2.135 1.208 4.228 4.437 6.059 3.936l62.296-33.245zM89.373 265.925l-6.257 5.251 25.692 77.778c.837 1.906 7.726 1.676 9.237 1.166 2.808-.961 19.944-48.642 22.481-54.911l-51.145-29.284zm559.844 31.938-68.913-23.565c-2.028-.296-3.539 1.947-4.631 3.476l9.828 38.987 63.749-13.746-.025-5.144zm-75.244-19.81c-4.384.14-7.849 1.15-11.864-1.471l-1.388.567-43.649 47.5c2.258 2.309 3.038 6.015 7.062 5.004l58.715-12.851-8.876-38.741zm175.76 12.136c.69 5.612-1.281 9.071-4.565 13.237l23.146 65.083c1.158 1.438 7.234-.616 9.763.674l44.535-81.55-7.907-7.378-64.972 9.926zm-341.7-8.168c-.829-.69-1.732-1.035-2.8-.657l-59.979 20.632.755 5.546 43.476 13.697 19.969-36.358c.139-.682-.936-2.449-1.429-2.851zm89.966 44.658-75.507-45.57c-1.937 1.143-3.588 2.868-2.479 5.243l21.832 52.397c4.927-.953 9.976-1.792 12.185 3.763l38.082-5.374c6.191-1.167 3.276-6.187 5.887-10.459m-79.965-40.968c-2.217-.05-6.257-.814-7.874.624l-17.842 35.315 47.885 18.701zM181.76 316.679l52.935 28.889c2.537.641 4.541-4.165 6.158-5.71l-34.033-44.049-24.452 18.249-.616 2.621zm544.26-21.1-51.884 3.804-2.512 7.896 40.413 28.512 17.588-31.955-3.605-8.265zm-601.653 57.968c.723.575 1.059 2.226 2.151 2.728l49.807-40.631-34.157-18.594-21.192 52.257-.033 2.325c1.182.575 2.373 1.077 3.416 1.915zm607.532-49.579-17.612 33.343 47.902 33.532c1.47 1.429 4.877.591 4.672-1.636l-22.325-62.864c-1.963-4.29-8.548-.181-12.645-2.375zm-81.919.748-63.683 13.672 13.598 49.036c4.483-1.659 8.243 1.578 11.774.321l41.858-56.284-3.538-6.737zm-261.48 18.15L346.075 309.3c-2.685-.353-3.539 3.197-5.264 4.799l23.106 43.014c2.545-.263 6.002.829 7.898-1.126l16.693-33.121zm280.414-12.801c-1.01.246-3.571 1.98-3.588 3.204l10.748 66.866c1.051 2.81 8.498-.164 10.896 2.728l23.852-45.035c-11.585-8.356-23.31-17.953-35.553-25.348-1.855-1.117-4.006-2.999-6.355-2.424zm-339.13 3.82-4.433-2.875-63.002 34.435 1.577 7.715 53.115 6.664c1.741-5.357 14.049-43.761 12.743-45.939m339.91 73.465c.403-.239 5.617-6.549 4.754-7.765l-10.115-64.508c-.772-4.519-5.165-1.43-8.449-3.476l-43.649 58.034c2.973 3.952 4.672 8.216 4.385 13.327 13.121.435 26.102 2.851 39.174 3.788 1.814.131 13.301.953 13.9.6m-350.362-27.255 36.07 4.601 6.38-6.622-23.245-43.466-6.979.748-12.226 44.747zM178.41 317.649l-50.397 39.447 1.535 6.105 104.589-10.287c.821-.879 1.93-4.404.788-5.316l-56.506-29.941zm405.424 1.495-60.989 12.218c-1.79.961-1.528 4.256-1.955 6.212l71.648 34.78 4.91-5.595zm-144.493 22.834-48.074-18.249-17.875 34.345 4.59 5.76 59.75-15.628c1.757-.468 2.216-5.267 1.609-6.22zm16.109 2.21c0 3.114.353 5.546-1.231 8.332l19.821 16.761 26.217-25.512c-2.595-1.594-2.39-5.834-5.674-5.776l-39.141 6.195zm256.357-4.462c-2.151 6.278-23.72 41.634-22.834 44.961l3.654 5.514 67.033-8.324 2.751-8.446-48.28-33.664-2.332-.041zm-168.83 81.139 9.755.493 38.59-34.97c-2.093-3.418-1.486-7.592-.722-11.339-.197-1.051-1.527-1.602-2.348-2.128-5.929-3.853-15.642-7.888-22.301-11.158-12.973-6.368-28.483-14.74-41.579-20.015-1.486-.6-2.948-1.307-4.582-1.446-1.338 3.492-5.403 3.286-4.918 7.082l28.114 73.489zm-41.382-75.067c-2.422 2.424-5.271 4.429-7.8 6.705-3.695 3.336-14.796 13.607-17.128 17.099-.493.739-.985 1.208-.673 2.218l61.022 52.101c1.445-1.101 3.966-1.75 3.457-3.878l-27.399-72.322-1.749-1.29-9.73-.624zm-63.798 51.477 7.029-39.045c.911-4.667-3.851-4.733-5.387-8.405l-59.93 15.767-.747 6.557 52.072 28.158zm9.418-41.543c-2.02 1.989-6.166 34.773-7.611 39.957.057 1.824 3.21 2.695 4.803 3.221l27.761-27.747-18.31-16.762c-.895-.608-6.315 1.003-6.651 1.331zm-211.764.025-2.299-.69c-34.42 3.442-68.971 6.047-103.234 10.739-1.117.715-2.283 5.817-.748 6.885l60.9 37.295c4.557-2.941 8.884-3.015 13.613-.411l34.428-45.848.435-2.26-3.103-5.702zm80.81 5.899-53.222-6.852c-.608 5.636-5.362 7.781-9.065 11.15l28.943 73.916c2.677-.041 7.086 1.323 8.416-1.602 9.607-25.094 17.76-50.713 24.92-76.62zm1.593.838c-7.217 25.611-15.05 51.132-25.035 75.806-.64 1.734.419 3.295 2.119 3.681 1.01.23 7.57-6.795 8.785-8.052 14.64-15.118 30.117-32.143 44.109-47.919 1.593-1.799 9.081-9.901 9.344-11.215s-.534-8.209-2.71-8.373c-4.409-.608-35.216-5.127-36.612-3.919zm-36.628 78.978-28.919-74.804c-1.724-2.349-8.079.288-10.977-2.736l-1.101.354-35.429 46.883c2.381 2.991 3.317 6.081 3.826 9.836l65.555 24.961 7.037-4.494zm168.272-32.069c.714.715 8.67 2.415 10.468 2.843 19.509 4.56 39.478 8.611 59.167 12.316 3.178.6 10.978 2.539 13.499 2.539 1.264 0 1.847-.074 2.619-1.175l-60.555-52.742c-1.157-.23-2.446 1.093-3.325 1.767-8.457 6.524-16.265 17.78-24.731 24.756-1.166 1.865 1.059 2.958 1.568 4.528.46 1.429.386 4.264 1.29 5.176zm-19.985-8.126-50.71-27.345c-1.56-.386-6.684 4.519-8.433 5.719l2.915 45.897 54.249-16.844 1.133-1.15.837-6.269zm-60.785-22.136c-3.818 1.635-7.619-4.108-10.288-2.341l-60.842 65.502c-1.182 1.027 1.987 5.258 2.693 5.71 3.137 1.997 62.69-20.237 71.139-21.65l-2.702-47.213zm285.21 81.328c4.426.493 5.46 4.289 8.547 6.063 34.395-24.09 68.322-48.987 100.763-75.584l-3.292-6.474-66.056 6.951-.871.649c-1.026 10.895-9.721 13.237-19.278 11.52l-19.805 56.883zm14.402-71.435-50.612-4.618c-3.547.436-4.557 6.311-8.761 7.395l31.333 68.633 11.569-1.553 1.445-1.594 19.262-56.119c-2.668-3.829-5.008-7.148-4.228-12.144zm-61.007 3.969c-2.849-.625-5.295-.304-8.21-1.299-2.603-.887-5.608-3.968-7.571-3.081l-37.695 33.902c-1.158 2.571 4.195 7.904 2.8 11.659l79.283 32.332c1.938-1.701 3.522-4.166 2.389-6.762l-30.996-66.76zm-233.194 34.156c-.148 2.35-.197 4.774-.082 7.132.706 14.403 3.235 33.351 5.518 47.721.706 4.429 1.584 4.692 6.108 5.021l46.728-70.244-5.378-7.123-52.902 17.485zm159.593 1.438-84.185-17.362-5.551 6.343 11.545 34.847c3.842 2.152 7.34 3.368 10.863 6.556l66.868-24.986zm-91.353-10.55-7.899-.165-46.391 69.315-.016 1.463 4.253 4.239 56.129-27.164c.271-1.791-.066-3.434.468-5.25.747-2.547 5.033-5.538 5.049-6.401l-11.577-36.054zm-63.839 68.296-7.267-57.689-69.364 22.481c.074 2.917-1.207 7.066 1.437 8.997l66.359 31.494c2.685-2.136 5.165-5.012 8.835-5.292zm155.923-50.894L467.29 460.46c-.862.674-.681 3.92-.344 4.906.911 2.67 46.694 17.55 52.606 20.212l19.386-42.298zm99.531 43.228c-.673-3.846 2.849-9.573-1.634-11.446l-75.006-30.746-5.016 5.053 21.808 52.356c6.962-.534 11.043.69 16.101 5.308l43.747-20.534zm-83.578-35.619-10.238 1.487-18.549 41.403 46.588 15.587 4.689-7.584-22.49-50.885zm-102.043 24.436L394.6 494.419c-2.134 1.381-1.888 4.347-1.19 6.475l90.113 39.169 3.711-4.446-28.466-62.824-10.387-5.291zm51.038 67.491 19.55-47.057-52.919-20.188-4.409 3.591c-.558.953.107 2.522.386 3.525 4.171 14.962 17.029 38.651 23.943 53.638.952 2.062 1.765 4.28 2.233 6.507h11.216zm67.673-31.741-45.799-14.502-20.683 47.861 5.025 3.484 63.083-29.374-1.618-7.469z"/></g><defs><linearGradient id="a" x1="487" x2="0" y1="134.5" y2="134.5" gradientUnits="userSpaceOnUse"><stop stop-color="#004fed"/><stop offset=".76" stop-color="#002d87"/></linearGradient></defs></svg>