<svg width="40" height="40" viewBox="0 0 40 40" fill="none" xmlns="http://www.w3.org/2000/svg">
<path d="M30.7109 24.6126L28.6688 22.569C28.127 22.0274 27.3924 21.7232 26.6266 21.7232C25.8608 21.7232 25.1263 22.0274 24.5845 22.569L23.5634 23.5908C23.0217 24.1328 22.2872 24.4372 21.5212 24.4372C20.7553 24.4372 20.0207 24.1328 19.4791 23.5908L16.4158 20.5254C15.8742 19.9834 15.57 19.2483 15.57 18.4818C15.57 17.7153 15.8742 16.9802 16.4158 16.4382L17.4369 15.4164C17.9781 14.8742 18.2821 14.1392 18.2821 13.3728C18.2821 12.6064 17.9781 11.8714 17.4369 11.3292L15.3947 9.28561C15.1444 8.98729 14.8319 8.74742 14.4791 8.58285C14.1263 8.41829 13.7418 8.33301 13.3526 8.33301C12.9633 8.33301 12.5788 8.41829 12.226 8.58285C11.8732 8.74742 11.5607 8.98729 11.3104 9.28561C5.93953 14.6209 8.47473 20.7794 13.8427 26.1482C19.2107 31.517 25.3663 34.0569 30.7109 28.7056C31.0101 28.4552 31.2506 28.1421 31.4157 27.7885C31.5808 27.4349 31.6663 27.0494 31.6663 26.6591C31.6663 26.2688 31.5808 25.8833 31.4157 25.5297C31.2506 25.1761 31.0101 24.863 30.7109 24.6126Z" stroke="white" stroke-width="2" stroke-linecap="round" stroke-linejoin="round"/>
</svg>
