<svg xmlns="http://www.w3.org/2000/svg" id="_Слой_1" data-name="Слой 1" viewBox="0 0 512 512"><defs><style>.cls-1{fill:#004fed}</style></defs><path d="M231.67 198.5c-.59.12-1.21.22-1.82.25l.98-1.8z" style="fill:#004fed;fill-rule:evenodd"/><path d="M400.44 90.93H111.55c-20.43 0-36.98 17.17-36.98 38.36V346c0 15.37 12.01 27.84 26.84 27.84h309.18c14.82 0 26.84-12.47 26.84-27.84V129.29c0-21.19-16.56-38.36-36.99-38.36M256 100.38c2.72 0 4.92 2.21 4.92 4.93s-2.2 4.92-4.92 4.92-4.93-2.2-4.93-4.92 2.21-4.93 4.93-4.93m148.55 189.29c-.51 25.57-36.61 30.57-43.89 6.09-1.59-4.69-.51-10.65-.58-15.05-.15-2.43-1.35-4.21-3.95-6.62-7.98-7.35-25.76-23.77-31.96-29.42-3.98-4.15-4.73.19-6.48 4.13-3.28 8.8-9.43 21.66-11.85 30.33-.8 4.14 1.99 7.41 3.39 11.1 5.73 12.18-4.98 27.3-18.59 25.11-7.91-.91-14.45-7.44-15.36-15.44-1.21-6.72 2.9-11.14.54-16.53-7.17-13.45-40.76-76.11-47.95-89.56-2.22-4.75-4-3.58-6.03.56-6.28 11.47-30.78 56.18-41.02 74.85-1.97 4.43-4.81 6.17-3.3 10.24 9.17 13.45 5.43 31.27-12.27 33.69-17.96 2.06-28.02-21.66-14.39-33.37 1.96-1.76 4.35-3.06 6.83-3.93 4.58-1.59 8.11-1.93 10.85-5.53 2.86-3.8 4.9-8.37 7.37-12.66 1.94-4.1 5.78-9.19 5.99-12.75-.04-2.01-2.15-3.6-5.62-6.86-9.43-8.05-20.29-20.06-30.34-27.05-4.19-1.41-8.35 1.72-12.66 2.06-9.25 1.53-18.98-3.36-23.16-11.58-8.26-14.63 3.71-34.56 20.9-33.12 12.3.32 22.09 11.86 21.27 23.94-.11 5.1-.88 8.25 3.2 12.12 7.01 6.6 24.25 22.44 29.8 27.47 1.03.81 2.17 1.99 3.39 1.33 2.4-2.31 4.12-6.79 8.03-13.55 5.47-10.28 11.81-20.81 15.02-27.94 1.18-3.22-.42-5.43-1.99-8.5-1.64-3.02-2.83-6.97-2.35-10.55 1.53-16.05 24.59-18.68 29.67-3.31 2.36 5.99-.79 11.86-1.4 16.86 6 14.62 40.41 75.71 47.91 90.71 1.66 3.51 6.44 2.58 9.53 1.55 2.65-.91 3.05-2.86 4.79-7.08 1.46-3.65 2.89-7.15 4.41-10.9 9.24-22.98 24.98-61.39 28.33-70.21.93-3.87-2.5-6.53-3.9-10.34-12.71-31.8 36.35-44.75 40.54-10.62.59 9.57-5.43 18.56-14.4 21.51-4.39 1.75-9.53.82-12.76 4.4-5.01 8.26-10.41 24.73-13.46 31.55-1.3 2.8-.84 5.21 1.59 7.16 6.92 6.37 28.94 26.84 36.43 33.47 5.4 4.37 11.68-1.35 18.04-.51 11.8.05 21.91 10.46 21.84 22.18z" class="cls-1"/><rect width="431.59" height="34.3" x="40.21" y="386.77" class="cls-1" rx="16.99" ry="16.99"/></svg>