<svg xmlns="http://www.w3.org/2000/svg" data-name="Слой 1" viewBox="0 0 512 512"><path d="M246.67 75.1h-99.92c-29.66 0-53.7 24.05-53.7 53.71v254.38c0 29.66 24.04 53.71 53.7 53.71h218.5c29.66 0 53.7-24.05 53.7-53.71v-135.8c0-95.15-77.13-172.29-172.28-172.29m-85.63 147.17a5.73 5.73 0 0 1 5.73-5.73h169.21c3.17 0 5.73 2.56 5.73 5.73v.55a5.73 5.73 0 0 1-5.73 5.73H166.77c-3.16 0-5.73-2.57-5.73-5.73zm0 28.82a5.73 5.73 0 0 1 5.73-5.73h169.21c3.17 0 5.73 2.56 5.73 5.73v.54c0 3.17-2.56 5.73-5.73 5.73H166.77a5.73 5.73 0 0 1-5.73-5.73zm0 29.36v-.55c0-3.16 2.57-5.73 5.73-5.73h169.21a5.73 5.73 0 0 1 5.73 5.73v.55a5.73 5.73 0 0 1-5.73 5.73H166.77c-3.16 0-5.73-2.57-5.73-5.73m195.61 126.19c-16.21 0-29.35-13.14-29.35-29.35s13.14-29.35 29.35-29.35S386 361.08 386 377.29s-13.14 29.35-29.35 29.35" style="fill:#004fed"/></svg>