<?xml version="1.0" encoding="UTF-8"?>
<svg id="_Слой_1" data-name="Слой 1" xmlns="http://www.w3.org/2000/svg" viewBox="0 0 512 512">
  <defs>
    <style>
      .cls-1, .cls-2 {
        fill: #004fed;
      }

      .cls-2 {
        fill-rule: evenodd;
      }
    </style>
  </defs>
  <path class="cls-2" d="M326.99,74.94h-141.76c-60.85,0-110.18,49.33-110.18,110.18v141.76c0,60.85,49.33,110.18,110.18,110.18h141.76c60.85,0,110.18-49.33,110.18-110.18v-141.76c0-60.85-49.33-110.18-110.18-110.18ZM182.52,326.79c0,6.51-2.64,12.41-6.91,16.68-4.27,4.27-10.17,6.91-16.68,6.91-13.03,0-23.58-10.56-23.58-23.59v-141.58c0-13.03,10.55-23.59,23.58-23.59s23.59,10.56,23.59,23.59v141.58ZM246.86,366.35c0,6.51-2.64,12.41-6.91,16.67-4.27,4.27-10.17,6.91-16.68,6.91-13.02,0-23.58-10.56-23.58-23.58v-220.7c0-13.02,10.56-23.58,23.58-23.58s23.59,10.56,23.59,23.58v220.7ZM313.51,290.95c0,6.51-2.64,12.41-6.91,16.67-4.27,4.27-10.16,6.91-16.68,6.91-13.02,0-23.58-10.56-23.58-23.58v-69.9c0-13.02,10.56-23.58,23.58-23.58s23.59,10.56,23.59,23.58v69.9ZM376.87,363.8c0,6.52-2.64,12.41-6.91,16.68-4.26,4.27-10.16,6.91-16.67,6.91-13.03,0-23.59-10.56-23.59-23.59v-215.6c0-13.03,10.56-23.59,23.59-23.59s23.58,10.56,23.58,23.59v215.6Z"/>
  <circle class="cls-1" cx="158.93" cy="323.96" r="15.28"/>
  <circle class="cls-1" cx="223.27" cy="147.82" r="15.28"/>
  <circle class="cls-1" cx="289.92" cy="290.19" r="15.28"/>
  <circle class="cls-1" cx="353.29" cy="147.82" r="15.28"/>
</svg>