<svg xmlns="http://www.w3.org/2000/svg" id="_Слой_1" data-name="Слой 1" viewBox="0 0 512 512"><defs><style>.cls-1{fill:#004fed}</style></defs><path d="m431.56 425.59-5.35 5.35c-8.68 8.67-22.74 8.67-31.41 0l-62.66-62.65a172.3 172.3 0 0 0 37.91-35.63l61.51 61.52c8.67 8.67 8.67 22.73 0 31.41M306.79 87.06c-6.75-3.57-13.74-6.62-20.74-9.09-16.78-5.94-34.38-8.95-52.34-8.95C147.3 69.02 77 139.32 77 225.73s70.3 156.75 156.71 156.75c17.95 0 35.56-3.02 52.34-8.98 7.14-2.52 14.1-5.56 20.71-9.06 4.67-2.46 9.18-5.14 13.52-8.01 14.76-9.77 27.56-21.8 38.03-35.51 20.52-26.84 32.15-60.08 32.15-95.19 0-58.3-32.06-111.44-83.67-138.67m-70.27 46.35c21.34 1.02 39.44 20.16 39.24 41.53v.62c.41 32.7-38.14 52.96-64.96 34.46-35.36-23.66-16.87-79.26 25.72-76.61m70.07 159.63-.36.39c-31.95 33.44-102.15 35.34-138.46 5.65-12.92-10.08-23.56-28.2-14.76-44.03 10.74-19.43 44.86-25.09 67.67-26.4 22.65-1.22 48.21.48 69.05 8.01 29.97 10.15 36.65 35.37 16.86 56.38" class="cls-1"/></svg>