<?xml version="1.0" encoding="UTF-8"?>
<svg id="_Слой_1" data-name="Слой 1" xmlns="http://www.w3.org/2000/svg" viewBox="0 0 512 512">
  <defs>
    <style>
      .cls-1 {
        fill: #004fed;
      }
    </style>
  </defs>
  <path class="cls-1" d="M246.67,75.1h-99.92c-29.66,0-53.7,24.05-53.7,53.71v254.38c0,29.66,24.04,53.71,53.7,53.71h218.5c29.66,0,53.7-24.05,53.7-53.71v-135.8c0-95.15-77.13-172.29-172.28-172.29ZM161.04,222.27c0-3.17,2.57-5.73,5.73-5.73h169.21c3.17,0,5.73,2.56,5.73,5.73v.55c0,3.16-2.56,5.73-5.73,5.73h-169.21c-3.16,0-5.73-2.57-5.73-5.73v-.55ZM161.04,251.09c0-3.17,2.57-5.73,5.73-5.73h169.21c3.17,0,5.73,2.56,5.73,5.73v.54c0,3.17-2.56,5.73-5.73,5.73h-169.21c-3.16,0-5.73-2.56-5.73-5.73v-.54ZM161.04,280.45v-.55c0-3.16,2.57-5.73,5.73-5.73h169.21c3.17,0,5.73,2.57,5.73,5.73v.55c0,3.16-2.56,5.73-5.73,5.73h-169.21c-3.16,0-5.73-2.57-5.73-5.73ZM356.65,406.64c-16.21,0-29.35-13.14-29.35-29.35s13.14-29.35,29.35-29.35,29.35,13.14,29.35,29.35-13.14,29.35-29.35,29.35Z"/>
</svg>