<svg xmlns="http://www.w3.org/2000/svg" id="_Слой_1" data-name="Слой 1" viewBox="0 0 512 512"><defs><style>.cls-1{fill:#004fed}</style></defs><path d="M326.01 130.98c.42 34.07-39.74 55.18-67.69 35.91-36.84-24.65-17.58-82.59 26.8-79.83 22.23 1.07 41.1 21 40.88 43.28v.65ZM357.75 253.8c-33.29 34.84-106.44 36.83-144.27 5.89-13.46-10.51-24.55-29.38-15.38-45.88 11.19-20.24 46.74-26.14 70.51-27.51 23.6-1.27 50.23.5 71.94 8.35 31.23 10.58 38.19 36.86 17.58 58.75l-.38.41Z" class="cls-1"/><path d="M73.57 314.6c0-3.64 1.99-6.99 5.19-8.73 33.83-18.31 70.55-36.48 109.92-29.06 13.94 2.63 105.61 42 116.25 50.15 12.36 9.46 5.87 26.04-7.55 27.3-13.51 1.27-70.58-21.91-94.56-27.31-5.29-1.19-10.26 2.93-10.1 8.34.11 3.76 2.72 7.01 6.39 7.83 47.06 10.55 145.15 61.42 122.74-20.31-1.16-4.24.88-8.76 4.85-10.64 30.99-14.77 84.85-69.64 107.01-30.77 9.08 15.93 4.26 27.11-7.32 39.32-18.8 19.83-96.68 77.12-121.7 92.29-6.75 4.09-12.85 9.12-20.83 10.91-45.26 10.13-115.58-51.84-160.37-33.59-12.18 4.97-22.96 17.93-35.52 24.61-2.97 1.58-6.59 1.38-9.49-.33a9.94 9.94 0 0 1-4.9-8.56v-91.44Z" class="cls-1"/></svg>