<svg xmlns="http://www.w3.org/2000/svg" data-name="Слой 1" viewBox="0 0 512 512"><path d="M344.06 75.12H167.94c-47.71 0-86.38 38.67-86.38 86.37v189.02c0 47.7 38.67 86.37 86.38 86.37h176.12c47.71 0 86.38-38.67 86.38-86.37V161.49c0-47.7-38.67-86.37-86.38-86.37m-76.74 240.53c0 4.48-3.64 8.11-8.12 8.11H134.07c-4.48 0-8.11-3.63-8.11-8.11v-2.05c0-4.48 3.63-8.11 8.11-8.11H259.2c4.48 0 8.12 3.63 8.12 8.11zm0-117.25c0 4.48-3.64 8.11-8.12 8.11H134.07c-4.48 0-8.11-3.63-8.11-8.11v-2.05c0-4.48 3.63-8.11 8.11-8.11H259.2c4.48 0 8.12 3.63 8.12 8.11zM393 276.33c-.12.1-5.82 5.14-14.64 15.62s-20.74 26.39-33.31 48.23a8.22 8.22 0 0 1-6.92 4.15h-.29c-4.44 0-7.72-3.14-13.25-10.06-3.13-3.93-7.15-9.36-11.95-16.17-8.08-11.46-15.74-23.09-15.82-23.21-2.38-3.61-1.37-8.47 2.24-10.85a7.84 7.84 0 0 1 10.86 2.24c9.07 13.79 19.95 29.38 26.5 37.71 24.5-40.36 45.37-58.68 46.3-59.49a7.83 7.83 0 0 1 11.06.79c2.83 3.26 2.48 8.21-.78 11.04m0-107.71c-.12.1-5.82 5.14-14.64 15.61-8.82 10.48-20.74 26.39-33.31 48.24a8.19 8.19 0 0 1-6.92 4.14c-.1.01-.19.01-.29.01-4.44 0-7.72-3.15-13.25-10.07-3.13-3.92-7.15-9.36-11.95-16.16-8.08-11.47-15.74-23.1-15.82-23.21-2.38-3.62-1.37-8.48 2.24-10.86a7.84 7.84 0 0 1 10.86 2.24c9.07 13.79 19.95 29.38 26.5 37.71 24.5-40.36 45.37-58.68 46.3-59.49a7.85 7.85 0 0 1 11.06.79 7.845 7.845 0 0 1-.78 11.05" style="fill:#004fed"/></svg>