<?xml version="1.0" encoding="UTF-8"?>
<svg id="_Слой_1" data-name="Слой 1" xmlns="http://www.w3.org/2000/svg" viewBox="0 0 512 512">
  <defs>
    <style>
      .cls-1 {
        fill: #004fed;
      }
    </style>
  </defs>
  <path class="cls-1" d="M344.06,75.12h-176.12c-47.71,0-86.38,38.67-86.38,86.37v189.02c0,47.7,38.67,86.37,86.38,86.37h176.12c47.71,0,86.38-38.67,86.38-86.37v-189.02c0-47.7-38.67-86.37-86.38-86.37ZM267.32,315.65c0,4.48-3.64,8.11-8.12,8.11h-125.13c-4.48,0-8.11-3.63-8.11-8.11v-2.05c0-4.48,3.63-8.11,8.11-8.11h125.13c4.48,0,8.12,3.63,8.12,8.11v2.05ZM267.32,198.4c0,4.48-3.64,8.11-8.12,8.11h-125.13c-4.48,0-8.11-3.63-8.11-8.11v-2.05c0-4.48,3.63-8.11,8.11-8.11h125.13c4.48,0,8.12,3.63,8.12,8.11v2.05ZM393,276.33c-.12.1-5.82,5.14-14.64,15.62-8.82,10.48-20.74,26.39-33.31,48.23-1.44,2.51-4.03,4.06-6.92,4.15h-.29c-4.44,0-7.72-3.14-13.25-10.06-3.13-3.93-7.15-9.36-11.95-16.17-8.08-11.46-15.74-23.09-15.82-23.21-2.38-3.61-1.37-8.47,2.24-10.85,3.62-2.38,8.48-1.38,10.86,2.24,9.07,13.79,19.95,29.38,26.5,37.71,24.5-40.36,45.37-58.68,46.3-59.49,3.27-2.84,8.22-2.49,11.06.79,2.83,3.26,2.48,8.21-.78,11.04ZM393,168.62c-.12.1-5.82,5.14-14.64,15.61-8.82,10.48-20.74,26.39-33.31,48.24-1.44,2.51-4.03,4.06-6.92,4.14-.1.01-.19.01-.29.01-4.44,0-7.72-3.15-13.25-10.07-3.13-3.92-7.15-9.36-11.95-16.16-8.08-11.47-15.74-23.1-15.82-23.21-2.38-3.62-1.37-8.48,2.24-10.86,3.62-2.38,8.48-1.38,10.86,2.24,9.07,13.79,19.95,29.38,26.5,37.71,24.5-40.36,45.37-58.68,46.3-59.49,3.27-2.83,8.22-2.48,11.06.79,2.83,3.27,2.48,8.21-.78,11.05Z"/>
</svg>