<?xml version="1.0" encoding="UTF-8"?>
<svg id="_Слой_1" data-name="Слой 1" xmlns="http://www.w3.org/2000/svg" viewBox="0 0 512 512">
  <defs>
    <style>
      .cls-1 {
        fill: #004fed;
      }
    </style>
  </defs>
  <path class="cls-1" d="M325.18,74.05h-141.61c-60.8,0-110.08,49.28-110.08,110.07v141.63c0,60.79,49.28,110.07,110.08,110.07h141.61c60.79,0,110.07-49.28,110.07-110.07v-141.63c0-60.79-49.28-110.07-110.07-110.07ZM376.18,180.06c-.36.32-18.64,17.02-44.01,46.14-25.38,29.12-57.85,70.66-86.61,120.66-2.64,4.59-7.37,7.43-12.67,7.59-.19,0-.38,0-.56,0-7.77,0-14.01-4.97-27.18-21.45-7.07-8.84-16.13-21.1-26.96-36.46-18.27-25.92-35.6-52.23-35.77-52.49-4.3-6.53-2.49-15.3,4.04-19.6,6.53-4.3,15.31-2.49,19.6,4.04,22.26,33.82,49.05,72.03,63.52,89.78,58.04-95.75,124.67-156.55,127.61-159.21,5.8-5.24,14.75-4.8,19.99,1,5.24,5.8,4.8,14.74-1,19.99Z"/>
</svg>