<?xml version="1.0" encoding="UTF-8"?>
<svg id="_Слой_1" data-name="Слой 1" xmlns="http://www.w3.org/2000/svg" viewBox="0 0 512 512">
  <defs>
    <style>
      .cls-1 {
        fill: #004fed;
        fill-rule: evenodd;
      }
    </style>
  </defs>
  <path class="cls-1" d="M404.83,350.09c14.67,0,26.52-11.88,26.52-26.52v-185.27c0-34.73-28.16-62.85-62.86-62.85h-224.98c-34.74,0-62.86,28.15-62.86,62.85v240.4c0,31.95,25.91,57.85,57.86,57.85h282.92c5.47,0,9.92-4.45,9.92-9.95v-6.17c0-5.65-4.58-10.23-10.23-10.23h-9.19c-3.94,0-7.13-3.2-7.13-7.14v-52.97h.03ZM170.83,178.53c1.58-1.21,4.01-1.96,7.35-1.96h163.83c.7,0,3.69,2.99,3.69,6.68,0,1.85-.75,3.52-1.96,4.73-1.21,1.21-2.88,1.96-4.73,1.96h-163.83c-3.69,0-6.69-2.99-6.69-6.69,0-1.85.75-3.51,2.34-4.72ZM170.45,210.91c1.21-1.21,2.89-1.96,4.73-1.96h163.83c3.7,0,6.69,2.99,6.69,6.68,0,1.85-.75,3.52-1.96,4.73-1.21,1.21-2.88,1.96-4.73,1.96h-163.83c-3.69,0-6.69-2.99-6.69-6.69,0-1.85.75-3.51,1.96-4.72ZM345.05,249.37c0,1.83-.74,3.49-1.94,4.7-1.2,1.2-2.86,1.94-4.69,1.94h-162.66c-3.66,0-6.64-2.97-6.64-6.64,0-1.83.74-3.49,1.95-4.7s2.86-1.94,4.69-1.94h162.66c3.66,0,6.63,2.97,6.63,6.64ZM381.39,400.45c0,5.38-4.37,9.75-9.75,9.75h-220.93c-8.31,0-15.81-3.37-21.25-8.81-.56-.56-1.1-1.15-1.62-1.76-14.14-16.55-1.29-42.19,20.48-42.19h223.32c5.38,0,9.75,4.36,9.75,9.75v33.26Z"/>
</svg>