<svg xmlns="http://www.w3.org/2000/svg" width="736" height="340" fill="none" viewBox="0 0 736 340"><mask id="a" width="736" height="340" x="0" y="0" maskUnits="userSpaceOnUse" style="mask-type:alpha"><path fill="#004fed" d="M0 0h736v340H0z"/><path fill="#004fed" d="M0 0h736v340H0z"/><path fill="#004fed" d="M0 0h736v340H0z"/></mask><g mask="url(#a)"><path fill="#0d3fa0" d="M0 0h736v340H0z"/><g filter="url(#b)"><path fill="#000" d="M1 0h153v174c0 35.346-28.654 64-64 64H36c-19.33 0-35-15.67-35-35z"/></g><g filter="url(#c)"><path fill="#000" d="M1 113V-40h325c15.464 0 28 12.536 28 28v80c0 24.853-20.147 45-45 45z"/></g><g filter="url(#d)"><path fill="#000" d="M818.791 295.756 661.278 453.269 441.153 233.144c-10.935-10.934-10.935-28.663 0-39.598L547.047 87.652c17.574-17.574 46.066-17.574 63.64 0z"/></g></g><defs><filter id="b" width="393" height="478" x="-119" y="-120" color-interpolation-filters="sRGB" filterUnits="userSpaceOnUse"><feFlood flood-opacity="0" result="BackgroundImageFix"/><feBlend in="SourceGraphic" in2="BackgroundImageFix" result="shape"/><feGaussianBlur result="effect1_foregroundBlur_312_202" stdDeviation="60"/></filter><filter id="c" width="593" height="393" x="-119" y="-160" color-interpolation-filters="sRGB" filterUnits="userSpaceOnUse"><feFlood flood-opacity="0" result="BackgroundImageFix"/><feBlend in="SourceGraphic" in2="BackgroundImageFix" result="shape"/><feGaussianBlur result="effect1_foregroundBlur_312_202" stdDeviation="60"/></filter><filter id="d" width="625.84" height="618.798" x="312.951" y="-45.529" color-interpolation-filters="sRGB" filterUnits="userSpaceOnUse"><feFlood flood-opacity="0" result="BackgroundImageFix"/><feBlend in="SourceGraphic" in2="BackgroundImageFix" result="shape"/><feGaussianBlur result="effect1_foregroundBlur_312_202" stdDeviation="60"/></filter></defs></svg>